<svg width="64" height="64" xmlns="http://www.w3.org/2000/svg">
 <style type="text/css">.st0{display:none;}
	.st1{display:inline;fill:#FFFFFF;}
	.st2{display:inline;fill:none;stroke:#4C5159;stroke-width:2;stroke-miterlimit:10;}
	.st3{display:inline;}
	.st4{fill:none;stroke:#4C5159;stroke-width:2;stroke-miterlimit:10;stroke-dasharray:1.9857,1.9857;}
	.st5{display:inline;fill:none;stroke:#4C5159;stroke-width:2;stroke-miterlimit:10;stroke-dasharray:1.9857,1.9857;}
	.st6{fill:none;stroke:#4C5159;stroke-width:2;stroke-miterlimit:10;}
	.st7{display:inline;fill:none;stroke:#4C5159;stroke-width:2;stroke-miterlimit:10;stroke-dasharray:1.986,1.9857;}
	.st8{fill:#4C5159;}
	.st9{font-family:'Montserrat-Bold';}
	.st10{font-size:7px;}
	.st11{display:inline;fill:#74E2F0;}
	.st12{display:inline;fill:#FBDA73;}
	.st13{display:inline;fill:#F08E70;}</style>

 <g>
  <title>background</title>
  <rect fill="none" id="canvas_background" height="402" width="582" y="-1" x="-1"/>
 </g>
 <g>
  <title>Layer 1</title>
  <g class="st0" id="bg">
   <rect height="600.3" width="500" class="st1" y="-268.2" x="-218" id="XMLID_119_"/>
  </g>
  <g class="st0" id="guideline"/>
  <g stroke="null" id="icons">
   <g stroke="null" class="st0" id="XMLID_62_">
    <polygon stroke="null" points="43.6259009480209,60.6293724603795 20.068069883114276,60.6293724603795 18.507006841906332,57.22342904704078 18.507006841906332,47.147488123591074 45.18696205433935,47.147488123591074 45.18696205433935,57.08150877224239 " class="st2" id="XMLID_44_"/>
    <rect stroke="null" height="4.25744" width="7.521477" class="st2" y="60.62938" x="28.157205" id="XMLID_29_"/>
    <path stroke="null" d="m50.721635,26.569862c0,-10.35977 -8.372965,-18.87465 -18.87465,-18.87465s-18.87465,8.372965 -18.87465,18.87465c0,6.669989 3.405952,12.48849 8.656794,15.752527l0,4.683184l20.435711,0l0,-4.683184c5.250842,-3.264037 8.656794,-9.082538 8.656794,-15.752527z" class="st2" id="XMLID_25_"/>
    <line stroke="null" y2="53.817477" x2="30.14401" y1="53.817477" x1="18.507008" class="st2" id="XMLID_21_"/>
    <g stroke="null" class="st3" id="XMLID_16_">
     <path stroke="null" d="m8.431067,43.031963c-2.980208,-4.399354 -4.683184,-9.792111 -4.683184,-15.610612c0,-15.468698 12.630405,-27.957188 28.099102,-27.957188c15.468698,0 28.099102,12.630405 28.099102,28.099102c0,6.244245 -2.12872,12.062746 -5.534672,16.74593" class="st4" id="XMLID_17_"/>
    </g>
    <polyline stroke="null" points="23.332106565881077,25.71837604552252 29.008691175745753,31.394960655387194 40.361866200143595,20.04178756587885 " class="st2" id="XMLID_14_"/>
   </g>
   <g stroke="null" class="st0" id="XMLID_64_">
    <rect stroke="null" height="11" width="3.9" class="st2" transform="matrix(1.0034785475244774,-1.0034785475244774,1.0034785475244774,1.0034785475244774,-41.80870854421161,54.87644399142275) " y="42.5" x="46.1" id="XMLID_7_"/>
    <line stroke="null" y2="48.708549" x2="48.451001" y1="45.586427" x1="45.328878" class="st2" id="XMLID_9_"/>
    <path stroke="null" d="m51.005465,23.873484c2.12872,7.521477 0.283829,15.894442 -5.676586,21.712943c-8.656794,8.656794 -22.706345,8.656794 -31.363139,0c-8.656794,-8.656794 -8.656794,-22.706345 0,-31.363139c8.656794,-8.656794 22.706345,-8.656794 31.363139,0c1.135317,1.135317 2.270635,2.554464 3.122122,3.831696" class="st2" id="XMLID_36_"/>
    <polyline stroke="null" points="10.275954997590134,41.89664692411611 27.163801129167496,24.866887289853594 36.53016970196768,34.375162593225696 58.81077053570516,12.236481066841861 " class="st2" id="XMLID_8_"/>
    <polyline stroke="null" points="55.26290684756805,11.101166273247372 59.94609016652339,11.101166273247372 59.94609016652339,15.784349592202716 " class="st2" id="XMLID_2_"/>
    <path stroke="null" d="m42.490585,54.952794c-3.831696,1.986805 -8.23105,3.122122 -12.914234,3.122122c-15.468698,0 -28.099102,-12.630405 -28.099102,-28.099102s12.630405,-28.099102 28.099102,-28.099102c7.663392,0 14.61721,3.122122 19.726137,8.089136" class="st5" id="XMLID_40_"/>
   </g>
   <g stroke="null" class="st0" id="XMLID_99_">
    <path stroke="null" d="m41.639097,44.593024l0,15.894442c0,1.702976 -1.419147,3.122122 -3.122122,3.122122l-31.07931,0c-1.702976,0 -3.122122,-1.419147 -3.122122,-3.122122l0,-56.765863c0,-1.702976 1.419147,-3.122122 3.122122,-3.122122l31.07931,0c1.702976,0 3.122122,1.419147 3.122122,3.122122l0,11.920831" class="st2" id="XMLID_77_"/>
    <line stroke="null" y2="10.107762" x2="41.639097" y1="10.107762" x1="4.173627" class="st2" id="XMLID_68_"/>
    <line stroke="null" y2="5.566493" x2="29.008693" y1="5.566493" x1="16.945947" class="st2" id="XMLID_69_"/>
    <line stroke="null" y2="54.101306" x2="41.639097" y1="54.101306" x1="4.173627" class="st2" id="XMLID_67_"/>
    <path stroke="null" d="m56.540136,42.03856l-25.544638,0l-6.953818,5.960416c0,0 -0.141915,0 -0.141915,0l0,-26.963785c0,-1.702976 1.419147,-2.980208 2.980208,-2.980208l29.660164,0c1.702976,0 2.980208,1.419147 2.980208,2.980208l0,18.023162c0,1.561061 -1.419147,2.980208 -2.980208,2.980208z" class="st2" id="XMLID_70_"/>
    <g stroke="null" class="st3" id="XMLID_76_">
     <path stroke="null" d="m47.599513,24.015399l-6.10233,0c-1.702976,0 -2.980208,1.419147 -2.980208,2.980208l0,0c0,1.702976 1.419147,2.980208 2.980208,2.980208l2.980208,0c1.702976,0 2.980208,1.419147 2.980208,2.980208l0,0c0,1.702976 -1.419147,2.980208 -2.980208,2.980208l-6.38616,0" class="st6" id="XMLID_72_"/>
     <line stroke="null" y2="24.015399" x2="43.058244" y1="20.893276" x1="43.058244" class="st6" id="XMLID_73_"/>
     <line stroke="null" y2="39.200267" x2="43.058244" y1="36.220059" x1="43.058244" class="st6" id="XMLID_71_"/>
    </g>
   </g>
   <g stroke="null" class="st0" id="XMLID_100_">
    <g stroke="null" class="st3" id="XMLID_94_">
     <path stroke="null" d="m35.820596,18.196898l-5.108928,0c-1.419147,0 -2.554464,1.135317 -2.554464,2.554464l0,0c0,1.419147 1.135317,2.554464 2.554464,2.554464l2.412549,0c1.419147,0 2.554464,1.135317 2.554464,2.554464l0,0c0,1.419147 -1.135317,2.554464 -2.554464,2.554464l-5.392757,0" class="st6" id="XMLID_98_"/>
     <line stroke="null" y2="18.196898" x2="31.9889" y1="15.642434" x1="31.9889" class="st6" id="XMLID_97_"/>
     <line stroke="null" y2="30.969217" x2="31.9889" y1="28.414753" x1="31.9889" class="st6" id="XMLID_95_"/>
    </g>
    <path stroke="null" d="m58.101198,38.632608l-52.508424,0c-1.561061,0 -2.838293,-1.277232 -2.838293,-2.838293l0,-25.118894c0,-1.561061 1.277232,-2.838293 2.838293,-2.838293l52.650338,0c1.561061,0 2.838293,1.277232 2.838293,2.838293l0,25.118894c-0.141915,1.561061 -1.419147,2.838293 -2.980208,2.838293z" class="st2" id="XMLID_80_"/>
    <path stroke="null" d="m11.837019,7.979042c0,4.967013 -3.97361,9.082538 -9.082538,9.082538" class="st2" id="XMLID_82_"/>
    <path stroke="null" d="m51.856953,7.979042c0,4.967013 3.97361,9.082538 9.082538,9.082538" class="st2" id="XMLID_83_"/>
    <path stroke="null" d="m11.837019,38.632608c0,-4.967013 -3.97361,-9.082538 -9.082538,-9.082538" class="st2" id="XMLID_87_"/>
    <path stroke="null" d="m51.856953,38.632608c0,-4.967013 3.97361,-9.082538 9.082538,-9.082538" class="st2" id="XMLID_86_"/>
    <circle stroke="null" r="10.643595" cy="23.305825" cx="31.846986" class="st2" id="XMLID_85_"/>
    <line stroke="null" y2="23.305825" x2="17.939349" y1="23.305825" x1="14.533398" class="st2" id="XMLID_89_"/>
    <line stroke="null" y2="23.305825" x2="48.73483" y1="23.305825" x1="45.328878" class="st2" id="XMLID_88_"/>
    <line stroke="null" y2="45.018768" x2="60.939491" y1="45.018768" x1="2.754481" class="st2" id="XMLID_91_"/>
    <line stroke="null" y2="50.55344" x2="60.939491" y1="50.55344" x1="2.754481" class="st2" id="XMLID_90_"/>
    <line stroke="null" y2="56.230026" x2="60.939491" y1="56.230026" x1="2.754481" class="st2" id="XMLID_92_"/>
   </g>
   <g stroke="null" class="st0" id="XMLID_105_">
    <polygon stroke="null" points="43.6259009480209,60.6293724603795 20.068069883114276,60.6293724603795 18.507006841906332,57.22342904704078 18.507006841906332,47.147488123591074 45.18696205433935,47.147488123591074 45.18696205433935,57.08150877224239 " class="st2" id="XMLID_145_"/>
    <rect stroke="null" height="4.25744" width="7.521477" class="st2" y="60.62938" x="28.157205" id="XMLID_144_"/>
    <path stroke="null" d="m50.721635,26.569862c0,-10.35977 -8.372965,-18.87465 -18.87465,-18.87465s-18.87465,8.372965 -18.87465,18.87465c0,6.669989 3.405952,12.48849 8.656794,15.752527l0,4.683184l20.435711,0l0,-4.683184c5.250842,-3.264037 8.656794,-9.082538 8.656794,-15.752527z" class="st2" id="XMLID_143_"/>
    <line stroke="null" y2="53.817477" x2="30.14401" y1="53.817477" x1="18.507008" class="st2" id="XMLID_142_"/>
    <g stroke="null" class="st3" id="XMLID_135_">
     <path stroke="null" d="m8.431067,43.031963c-2.980208,-4.399354 -4.683184,-9.792111 -4.683184,-15.610612c0,-15.468698 12.630405,-27.957188 28.099102,-27.957188c15.468698,0 28.099102,12.630405 28.099102,28.099102c0,6.244245 -2.12872,12.062746 -5.534672,16.74593" class="st4" id="XMLID_136_"/>
    </g>
    <g stroke="null" class="st3" id="XMLID_146_">
     <path stroke="null" d="m45.045049,28.130924l0,-2.838293l-4.541269,-0.709573c-0.283829,-0.993403 -0.567659,-1.844891 -1.135317,-2.696379l2.696379,-3.689781l-1.986805,-1.986805l-3.689781,2.696379c-0.851488,-0.567659 -1.702976,-0.851488 -2.696379,-1.135317l-0.425744,-4.25744l-2.838293,0l-0.567659,4.399354c-0.993403,0.283829 -1.844891,0.567659 -2.696379,1.135317l-3.689781,-2.696379l-1.986805,1.986805l2.696379,3.689781c-0.567659,0.851488 -0.851488,1.702976 -1.135317,2.696379l-4.541269,0.709573l0,2.838293l4.541269,0.709573c0.283829,0.993403 0.567659,1.844891 1.135317,2.696379l-2.696379,3.689781l1.986805,1.986805l3.689781,-2.696379c0.851488,0.567659 1.702976,0.851488 2.696379,1.135317l0.709573,4.541269l2.838293,0l0.709573,-4.541269c0.993403,-0.283829 1.844891,-0.567659 2.696379,-1.135317l3.689781,2.696379l1.986805,-1.986805l-2.696379,-3.689781c0.567659,-0.851488 0.851488,-1.702976 1.135317,-2.696379l4.115525,-0.851488z" class="st6" id="XMLID_148_"/>
     <circle stroke="null" r="3.973607" cy="26.711777" cx="31.846986" class="st6" id="XMLID_147_"/>
    </g>
   </g>
   <g stroke="null" id="XMLID_150_">
    <g stroke="null" id="XMLID_84_">
     <path stroke="null" d="m31.9889,37.497291l0,-3.405952l-5.392757,-0.709573c-0.283829,-1.135317 -0.709573,-2.12872 -1.277232,-3.122122l3.264037,-4.25744l-2.412549,-2.554464l-4.25744,3.264037c-0.993403,-0.567659 -1.986805,-0.993403 -3.122122,-1.277232l-0.709573,-5.392757l-3.405952,0l-0.709573,5.392757c-1.135317,0.283829 -2.12872,0.709573 -3.122122,1.277232l-4.25744,-3.264037l-2.412549,2.412549l3.264037,4.25744c-0.567659,0.993403 -0.993403,1.986805 -1.277232,3.122122l-5.392757,0.709573l0,3.405952l5.392757,0.851488c0.283829,1.135317 0.709573,2.12872 1.277232,3.122122l-3.264037,4.25744l2.412549,2.412549l4.25744,-3.264037c0.993403,0.567659 1.986805,0.993403 3.122122,1.277232l0.709573,5.392757l3.405952,0l0.709573,-5.392757c1.135317,-0.283829 2.12872,-0.709573 3.122122,-1.277232l4.25744,3.264037l2.412549,-2.412549l-3.264037,-4.25744c0.567659,-0.993403 0.993403,-1.986805 1.277232,-3.122122l5.392757,-0.709573z" class="st6" id="XMLID_107_"/>
     <circle stroke="null" r="4.825098" cy="35.794315" cx="16.236373" class="st6" id="XMLID_81_"/>
    </g>
    <path stroke="null" d="m63.210125,56.088111c0,-7.379562 -10.785514,-5.534672 -10.785514,-5.534672l0,-47.82524l5.392757,0c2.980208,0 5.392757,2.412549 5.392757,5.392757l0,38.316958l0,9.650197z" class="st6" id="XMLID_93_"/>
    <path stroke="null" d="m16.094459,16.493922l0,-3.122122c0,-1.419147 1.135317,-2.554464 2.554464,-2.554464l30.369737,0" class="st6" id="XMLID_102_"/>
    <path stroke="null" d="m63.210125,46.721744l0,8.656794c0,3.405952 -2.696379,6.10233 -6.10233,6.10233l-38.316958,0c-1.419147,0 -2.554464,-1.135317 -2.554464,-2.554464l0,-4.115525" class="st6" id="XMLID_96_"/>
    <path stroke="null" d="m26.596143,16.493922c8.23105,2.838293 14.049551,10.643599 14.049551,19.868052c0,8.514879 -5.108928,15.894442 -12.48849,19.158479" class="st4" id="XMLID_104_"/>
   </g>
   <g stroke="null" class="st0" id="XMLID_112_">
    <g stroke="null" class="st3" id="XMLID_128_">
     <path stroke="null" d="m22.196789,38.06495l-7.095733,0c-1.986805,0 -3.547866,1.561061 -3.547866,3.547866l0,0c0,1.986805 1.561061,3.547866 3.547866,3.547866l3.405952,0c1.986805,0 3.547866,1.561061 3.547866,3.547866l0,0c0,1.986805 -1.561061,3.547866 -3.547866,3.547866l-7.379562,0" class="st6" id="XMLID_133_"/>
     <line stroke="null" y2="38.06495" x2="16.945947" y1="34.375169" x1="16.945947" class="st6" id="XMLID_132_"/>
     <line stroke="null" y2="55.662367" x2="16.945947" y1="52.256416" x1="16.945947" class="st6" id="XMLID_131_"/>
    </g>
    <circle stroke="null" r="17.029756" cy="45.018768" cx="16.662117" class="st2" id="XMLID_120_"/>
    <line stroke="null" y2="45.018768" x2="7.721494" y1="45.018768" x1="3.605969" class="st2" id="XMLID_108_"/>
    <line stroke="null" y2="45.018768" x2="29.718266" y1="45.018768" x1="25.602741" class="st2" id="XMLID_106_"/>
    <path stroke="null" d="m43.058244,29.691985l0,-9.934026l7.663392,0c0.283829,0 0.425744,-0.283829 0.141915,-0.425744l-17.171674,-17.313588c-0.141915,-0.141915 -0.283829,-0.141915 -0.425744,0l-17.313588,17.313588c-0.141915,0.141915 0,0.425744 0.141915,0.425744l7.663392,0l0,6.38616" class="st2" id="XMLID_121_"/>
    <path stroke="null" d="m57.959283,62.190442l0,-16.604015l5.960416,0c0.141915,0 0.283829,-0.283829 0.141915,-0.425744l-13.339978,-13.339978c-0.141915,-0.141915 -0.283829,-0.141915 -0.283829,0l-3.405952,3.405952" class="st2" id="XMLID_117_"/>
    <line stroke="null" y2="29.691985" x2="43.058244" y1="60.62938" x1="43.058244" class="st5" id="XMLID_110_"/>
   </g>
   <g stroke="null" class="st0" id="XMLID_123_">
    <path stroke="null" d="m62.074808,31.820705c0,0.141915 0,0.141915 0,0.283829c-1.561061,1.702976 -17.881247,19.300394 -30.227822,19.300394c-12.346575,0 -28.666761,-17.739332 -30.227822,-19.442308c0,-0.141915 0,-0.141915 0,-0.283829c1.561061,-1.702976 17.881247,-19.442308 30.227822,-19.442308c12.346575,0.141915 28.666761,17.881247 30.227822,19.584223z" class="st2" id="XMLID_109_"/>
    <path stroke="null" d="m45.186964,35.794315c-1.561061,5.960416 -7.095733,10.35977 -13.623807,10.35977c-7.805306,0 -14.049551,-6.244245 -14.049551,-14.049551c0,-6.528074 4.399354,-11.920831 10.501685,-13.623807" class="st2" id="XMLID_114_"/>
    <polyline stroke="null" points="31.563153572973533,15.074775306663696 31.563153572973533,32.104534940926214 49.58631643303488,32.104534940926214 " class="st2" id="XMLID_113_"/>
    <path stroke="null" d="m31.279327,18.054983c7.805306,0 14.049551,6.244245 14.049551,14.049551" class="st2" id="XMLID_111_"/>
    <line stroke="null" y2="8.546701" x2="31.705071" y1="2.444371" x1="31.705071" class="st2" id="XMLID_116_"/>
    <line stroke="null" y2="11.526909" x2="43.200158" y1="6.276066" x1="46.322281" class="st2" id="XMLID_122_"/>
    <line stroke="null" y2="11.810738" x2="19.926155" y1="6.559896" x1="16.945947" class="st2" id="XMLID_115_"/>
    <line stroke="null" y2="55.662367" x2="31.705071" y1="61.764698" x1="31.705071" class="st2" id="XMLID_126_"/>
    <line stroke="null" y2="52.68216" x2="43.200158" y1="57.933002" x1="46.322281" class="st2" id="XMLID_125_"/>
    <line stroke="null" y2="52.39833" x2="19.926155" y1="57.649173" x1="16.945947" class="st2" id="XMLID_124_"/>
    <path stroke="null" d="m38.233145,32.104534c0,3.689781 -2.980208,6.669989 -6.669989,6.669989s-6.669989,-2.980208 -6.669989,-6.669989c0,-3.689781 2.980208,-6.669989 6.669989,-6.669989" class="st2" id="XMLID_137_"/>
   </g>
   <g stroke="null" class="st0" id="XMLID_161_">
    <path stroke="null" d="m6.870006,64.744905l0,-18.448906c0,-1.277232 0.851488,-2.270635 1.986805,-2.696379l15.894442,-5.534672l0,-6.10233" class="st2" id="XMLID_153_"/>
    <path stroke="null" d="m56.823966,64.744905l0,-18.448906c0,-1.277232 -0.851488,-2.270635 -1.986805,-2.696379l-15.894442,-5.534672l0,-6.10233" class="st2" id="XMLID_157_"/>
    <path stroke="null" d="m43.767817,14.081373l0.141915,-2.554464c0,-6.669989 -5.392757,-12.062746 -12.062746,-12.062746c-6.669989,0 -12.062746,5.392757 -12.062746,12.062746l0.141915,2.554464l-0.141915,0c-1.419147,0 -2.412549,1.277232 -2.12872,2.696379l0.141915,0.425744c0.283829,1.277232 1.419147,2.270635 2.696379,2.412549l0.567659,6.38616c0.141915,1.986805 1.277232,3.689781 2.980208,4.683184l5.818501,3.831696l3.831696,0l6.10233,-3.831696c1.702976,-0.851488 2.838293,-2.696379 2.980208,-4.683184l0.567659,-6.38616c1.135317,-0.283829 1.986805,-1.277232 2.270635,-2.412549l0.141915,-0.425744c0.283829,-1.277232 -0.709573,-2.554464 -1.986805,-2.696379z" class="st2" id="XMLID_162_"/>
    <path stroke="null" d="m29.292522,48.992378l-1.561061,-4.683184c0,0 0,0 0,0l3.97361,-2.838293c0,0 0,0 0,0l3.97361,2.838293c0,0 0,0 0,0l-1.561061,4.683184l-4.825098,0z" class="st2" id="XMLID_151_"/>
    <line stroke="null" y2="64.744905" x2="27.731461" y1="48.992378" x1="29.292522" class="st2" id="XMLID_160_"/>
    <line stroke="null" y2="64.744905" x2="35.394852" y1="48.992378" x1="33.833791" class="st2" id="XMLID_156_"/>
    <line stroke="null" y2="43.173877" x2="29.292522" y1="38.06495" x1="24.751253" class="st2" id="XMLID_163_"/>
    <line stroke="null" y2="43.173877" x2="34.685279" y1="38.06495" x1="39.226548" class="st2" id="XMLID_164_"/>
    <polyline stroke="null" points="13.965737025636145,55.23661872566413 22.480617810212152,55.23661872566413 22.480617810212152,60.91321300997629 20.49381329350399,63.325760937074165 18.223177901646523,63.325760937074165 " class="st2" id="XMLID_165_"/>
    <line stroke="null" y2="55.236623" x2="19.642325" y1="50.979184" x1="19.642325" class="st2" id="XMLID_166_"/>
   </g>
   <g stroke="null" class="st0" id="XMLID_179_">
    <g stroke="null" class="st3" id="XMLID_169_">
     <path stroke="null" d="m25.318912,21.177105l-22.564431,0c-0.567659,0 -1.135317,0.567659 -1.135317,1.135317l0,34.485262" class="st6" id="XMLID_174_"/>
     <line stroke="null" y2="35.93623" x2="56.823966" y1="56.797685" x1="56.823966" class="st6" id="XMLID_173_"/>
     <polyline stroke="null" points="25.31891108258924,25.860288580762926 6.870005295860551,25.860288580762926 6.870005295860551,54.10130296462489 " class="st6" id="XMLID_175_"/>
     <line stroke="null" y2="39.767926" x2="51.573123" y1="54.101306" x1="51.573123" class="st6" id="XMLID_172_"/>
     <path stroke="null" d="m57.24971,61.764698l-56.340119,0c-0.709573,0 -1.277232,-0.567659 -1.419147,-1.277232l-0.567659,-3.264037l24.97698,0l0.993403,1.419147l6.953818,0l0.993403,-1.419147l26.396126,0l-0.567659,3.264037c-0.141915,0.709573 -0.709573,1.277232 -1.419147,1.277232z" class="st6" id="XMLID_797_"/>
    </g>
    <path stroke="null" d="m28.724863,39.767926l7.805306,-1.419147c2.554464,1.135317 5.392757,1.561061 8.372965,1.135317c6.811904,-0.993403 12.204661,-6.528074 13.056149,-13.339978c1.135317,-9.934026 -7.237648,-18.165076 -17.171674,-17.029759c-6.811904,0.851488 -12.346575,6.38616 -13.198063,13.198063c-0.425744,3.689781 0.425744,7.237648 2.270635,10.075941l-1.277232,7.095733c-0.141915,0.141915 0,0.283829 0.141915,0.283829z" class="st2" id="XMLID_443_"/>
    <path stroke="null" d="m46.88994,24.441143l-7.947221,4.683184c-0.141915,0 -0.141915,0 -0.141915,-0.141915l0,-9.224453c0,-0.141915 0.141915,-0.141915 0.141915,-0.141915l7.947221,4.683184c0,0 0,0.141915 0,0.141915l-7.947221,4.683184c-0.141915,0 -0.141915,0 -0.141915,-0.141915l0,-9.224453c0,-0.141915 0.141915,-0.141915 0.141915,-0.141915l7.947221,4.683184c0,0 0,0.141915 0,0.141915z" class="st2" id="XMLID_171_"/>
    <path stroke="null" d="m42.774414,2.444371c12.062746,0 21.996772,9.792111 21.996772,21.996772c0,4.825098 -1.561061,9.366367 -4.25744,13.056149" class="st2" id="XMLID_178_"/>
    <path stroke="null" d="m22.054874,17.06158c2.980208,-8.514879 11.211258,-14.61721 20.71954,-14.61721" class="st5" id="XMLID_177_"/>
   </g>
   <g stroke="null" class="st0" id="XMLID_180_">
    <g stroke="null" class="st3" id="XMLID_257_">
     <path stroke="null" d="m26.454229,64.177247l-22.990175,0l0,-1.561061c0,-1.702976 1.419147,-3.122122 3.122122,-3.122122l21.003369,0" class="st6" id="XMLID_272_"/>
     <path stroke="null" d="m30.427839,33.665595l0,8.940623c0,1.844891 0.141915,3.547866 0.567659,5.392757" class="st6" id="XMLID_194_"/>
     <path stroke="null" d="m6.728091,59.494063l0,0c3.689781,-4.825098 5.676586,-10.785514 5.676586,-16.887844l0,-8.940623" class="st6" id="XMLID_191_"/>
     <path stroke="null" d="m32.27273,18.622642l-2.554464,0c-0.283829,0 -0.567659,0.283829 -0.567659,0.567659l0,3.405952l-6.38616,0l0,-3.405952c0,-0.283829 -0.283829,-0.567659 -0.567659,-0.567659l-3.831696,0c-0.283829,0 -0.567659,0.283829 -0.567659,0.567659l0,3.405952l-6.38616,0l0,-3.405952c0,-0.283829 -0.283829,-0.567659 -0.567659,-0.567659l-2.554464,0c-0.283829,0 -0.567659,0.283829 -0.567659,0.567659l0,3.405952l0,4.115525l0,6.953818c0,0 0,0 0,0l26.538041,0" class="st6" id="XMLID_267_"/>
    </g>
    <g stroke="null" class="st3" id="XMLID_189_">
     <path stroke="null" d="m38.37506,29.266241c0,0 5.250842,4.967013 0,12.062746c-2.696379,3.689781 -8.656794,9.650197 -3.831696,18.165076" class="st6" id="XMLID_183_"/>
     <path stroke="null" d="m51.573123,29.266241c0,0 -5.250842,4.967013 0,12.062746c2.696379,3.689781 8.656794,9.650197 3.831696,18.165076" class="st6" id="XMLID_188_"/>
     <path stroke="null" d="m60.229917,64.461076l-30.369737,0l0,-2.554464c0,-1.419147 1.135317,-2.696379 2.696379,-2.696379l25.118894,0c1.419147,0 2.696379,1.135317 2.696379,2.696379l0,2.554464l-0.141915,0z" class="st6" id="XMLID_182_"/>
     <rect stroke="null" height="4.541269" width="20.577625" class="st6" y="24.866887" x="34.969108" id="XMLID_187_"/>
     <path stroke="null" d="m40.219951,24.866887c-3.122122,0 -5.676586,-2.696379 -5.250842,-5.960416c0.283829,-2.270635 2.12872,-4.25744 4.399354,-4.541269c1.277232,-0.283829 2.554464,0 3.689781,0.709573c0,0 0.141915,0 0.141915,0l0,-4.825098l-3.97361,0c-0.141915,0 -0.141915,0 -0.141915,-0.141915l0,-4.967013c0,-0.141915 0,-0.141915 0.141915,-0.141915l3.97361,0l0,-5.108928c0,-0.141915 0,-0.141915 0.141915,-0.141915l3.97361,0c0.141915,0 0.141915,0 0.141915,0.141915l0,4.967013l3.97361,0c0.141915,0 0.141915,0 0.141915,0.141915l0,4.967013c0,0.141915 0,0.141915 -0.141915,0.141915l-3.97361,0l0,4.825098c0,0 0,0 0.141915,0c0.993403,-0.567659 2.270635,-0.851488 3.689781,-0.709573c2.270635,0.425744 4.115525,2.270635 4.399354,4.541269c0.425744,3.264037 -2.12872,5.960416 -5.250842,5.960416" class="st6" id="XMLID_190_"/>
    </g>
   </g>
   <g stroke="null" class="st0" id="XMLID_217_">
    <g stroke="null" class="st3" id="XMLID_206_">
     <path stroke="null" d="m44.193561,33.381766l0,-2.696379l-4.25744,-0.567659c-0.141915,-0.851488 -0.567659,-1.702976 -0.993403,-2.554464l2.554464,-3.405952l-1.844891,-1.844891l-3.405952,2.696379c-0.709573,-0.425744 -1.561061,-0.851488 -2.554464,-0.993403l-0.567659,-4.25744l-2.696379,0l-0.567659,4.25744c-0.851488,0.141915 -1.702976,0.567659 -2.412549,0.993403l-3.405952,-2.554464l-1.844891,1.844891l2.554464,3.405952c-0.425744,0.709573 -0.851488,1.561061 -0.993403,2.554464l-4.25744,0.567659l0,2.696379l4.25744,0.567659c0.141915,0.851488 0.567659,1.702976 0.993403,2.554464l-2.554464,3.405952l1.844891,1.844891l3.405952,-2.554464c0.709573,0.425744 1.561061,0.851488 2.554464,0.993403l0.567659,4.25744l2.696379,0l0.567659,-4.25744c0.851488,-0.141915 1.702976,-0.567659 2.554464,-0.993403l3.405952,2.554464l1.844891,-1.844891l-2.696379,-3.547866c0.425744,-0.709573 0.851488,-1.561061 0.993403,-2.554464l4.25744,-0.567659z" class="st6" id="XMLID_209_"/>
     <circle stroke="null" r="3.831696" cy="32.104534" cx="31.846986" class="st6" id="XMLID_207_"/>
    </g>
    <circle stroke="null" r="26.254214" cy="32.104534" cx="31.846986" class="st2" id="XMLID_186_"/>
    <path stroke="null" d="m58.243112,14.223287c3.405952,5.108928 5.534672,11.211258 5.534672,17.881247c0,6.669989 -1.986805,12.914234 -5.534672,18.023162" class="st5" id="XMLID_214_"/>
    <path stroke="null" d="m14.817227,5.140749c4.967013,-3.122122 10.785514,-4.967013 17.029759,-4.967013c6.669989,0 12.772319,1.986805 17.881247,5.534672" class="st5" id="XMLID_218_"/>
    <path stroke="null" d="m5.450859,49.985781c-3.547866,-5.108928 -5.534672,-11.211258 -5.534672,-17.881247c0,-7.095733 2.270635,-13.623807 6.244245,-19.016564" class="st5" id="XMLID_216_"/>
    <path stroke="null" d="m48.309086,59.494063c-4.825098,2.838293 -10.501685,4.541269 -16.4621,4.541269c-7.379562,0 -14.049551,-2.412549 -19.442308,-6.669989" class="st5" id="XMLID_213_"/>
    <circle stroke="null" r="16.887843" cy="32.104534" cx="31.846986" class="st2" id="XMLID_193_"/>
    <line stroke="null" y2="23.163911" x2="16.520203" y1="17.06158" x1="10.417872" class="st2" id="XMLID_197_"/>
    <line stroke="null" y2="17.06158" x2="22.622533" y1="10.95925" x1="16.520203" class="st2" id="XMLID_196_"/>
    <line stroke="null" y2="47.005573" x2="40.361865" y1="53.533647" x1="46.88994" class="st2" id="XMLID_203_"/>
    <line stroke="null" y2="40.903243" x2="46.464196" y1="47.431317" x1="52.99227" class="st2" id="XMLID_202_"/>
    <line stroke="null" y2="23.305825" x2="47.315684" y1="17.06158" x1="53.559929" class="st2" id="XMLID_200_"/>
    <line stroke="null" y2="17.203495" x2="41.213353" y1="10.95925" x1="47.457598" class="st2" id="XMLID_199_"/>
    <line stroke="null" y2="53.817477" x2="16.804032" y1="47.289403" x1="23.332106" class="st2" id="XMLID_201_"/>
    <line stroke="null" y2="47.715147" x2="10.701702" y1="41.187072" x1="17.229776" class="st2" id="XMLID_198_"/>
    <path stroke="null" d="m9.566384,12.520311l-2.412549,-2.412549c-0.993403,-0.993403 -0.993403,-2.554464 0,-3.405952l0,0c0.993403,-0.993403 2.554464,-0.993403 3.405952,0" class="st2" id="XMLID_210_"/>
    <path stroke="null" d="m51.573123,9.823933l2.412549,-2.412549c0.993403,-0.993403 2.554464,-0.993403 3.405952,0l0,0c0.993403,0.993403 0.993403,2.554464 0,3.405952" class="st2" id="XMLID_204_"/>
    <path stroke="null" d="m54.127587,51.830672l2.412549,2.412549c0.993403,0.993403 0.993403,2.554464 0,3.405952l0,0c-0.993403,0.993403 -2.554464,0.993403 -3.405952,0" class="st2" id="XMLID_211_"/>
    <path stroke="null" d="m12.120848,54.385135l-2.412549,2.412549c-0.993403,0.993403 -2.554464,0.993403 -3.405952,0l0,0c-0.993403,-0.993403 -0.993403,-2.554464 0,-3.405952" class="st2" id="XMLID_212_"/>
   </g>
   <g stroke="null" class="st0" id="XMLID_394_">
    <g stroke="null" class="st3" id="XMLID_375_">
     <path stroke="null" d="m3.32214,63.325759l0,-3.405952c0,-0.709573 0.425744,-1.277232 0.993403,-1.419147l8.372965,-2.838293l0,-4.683184" class="st6" id="XMLID_379_"/>
     <path stroke="null" d="m29.434437,63.325759l0,-3.405952c0,-0.709573 -0.425744,-1.277232 -0.993403,-1.419147l-8.372965,-2.838293l0,-4.683184" class="st6" id="XMLID_378_"/>
     <path stroke="null" d="m22.764448,40.335584c0,-3.547866 -2.838293,-6.244245 -6.244245,-6.244245c-3.547866,0 -6.244245,2.838293 -6.244245,6.244245l0.567659,7.521477c0.141915,0.993403 0.709573,1.986805 1.561061,2.412549l3.122122,1.986805l1.986805,0l3.122122,-1.986805c0.851488,-0.425744 1.561061,-1.419147 1.561061,-2.412549l0.567659,-7.521477z" class="st6" id="XMLID_377_"/>
     <polyline stroke="null" points="12.688507761911751,55.520455405481925 15.101057623899123,58.21682840306062 17.93935089627621,58.21682840306062 20.20998435324418,55.520455405481925 " class="st6" id="XMLID_376_"/>
    </g>
    <g stroke="null" class="st3" id="XMLID_381_">
     <path stroke="null" d="m34.259535,63.325759l0,-3.122122c0,-0.709573 0.425744,-1.277232 0.993403,-1.419147l8.372965,-2.838293l0,-4.683184" class="st6" id="XMLID_386_"/>
     <path stroke="null" d="m60.371832,63.325759l0,-3.122122c0,-0.709573 -0.425744,-1.277232 -0.993403,-1.419147l-8.372965,-2.838293l0,-4.683184" class="st6" id="XMLID_384_"/>
     <path stroke="null" d="m53.559929,40.619414c0,-3.547866 -2.838293,-6.244245 -6.244245,-6.244245c-3.547866,0 -6.244245,2.838293 -6.244245,6.244245l0.567659,7.521477c0.141915,0.993403 0.709573,1.986805 1.561061,2.412549l3.122122,1.986805l1.986805,0l3.122122,-1.986805c0.851488,-0.425744 1.561061,-1.419147 1.561061,-2.412549l0.567659,-7.521477z" class="st6" id="XMLID_383_"/>
     <polyline stroke="null" points="43.6259009480209,55.94619688098214 45.89654020965736,58.64257761811882 48.73483735181344,58.64257761811882 51.147373669574336,55.94619688098214 " class="st6" id="XMLID_382_"/>
    </g>
    <g stroke="null" class="st3" id="XMLID_387_">
     <polyline stroke="null" points="24.751255136959116,47.71514600411069 28.29911882509623,46.579830243071456 28.29911882509623,42.180468124817935 " class="st6" id="XMLID_392_"/>
     <polyline stroke="null" points="38.65888481902675,47.8570585393511 35.25293753590904,46.579830243071456 35.25293753590904,42.180468124817935 " class="st6" id="XMLID_391_"/>
     <path stroke="null" d="m37.807401,32.104534c0,-3.264037 -2.696379,-5.960416 -5.960416,-5.960416c-3.264037,0 -5.960416,2.696379 -5.960416,5.960416l0.567659,7.237648c0,0.993403 0.567659,1.844891 1.561061,2.270635l2.838293,1.844891l1.844891,0l2.980208,-1.844891c0.851488,-0.425744 1.419147,-1.277232 1.561061,-2.270635l0.567659,-7.237648z" class="st6" id="XMLID_390_"/>
     <polyline stroke="null" points="28.29911882509623,46.579830243071456 30.5697522820642,49.13429457518873 33.124218549070974,49.13429457518873 35.39485394092844,46.579830243071456 " class="st6" id="XMLID_389_"/>
    </g>
    <g stroke="null" class="st3" id="XMLID_412_">
     <path stroke="null" d="m52.850355,32.672193l0,-4.541269l-7.095733,-0.993403c-0.425744,-1.561061 -0.993403,-2.980208 -1.702976,-4.25744l4.399354,-5.818501l-3.122122,-3.122122l-5.818501,4.399354c-1.277232,-0.851488 -2.696379,-1.419147 -4.25744,-1.702976l-0.993403,-7.237648l-4.541269,0l-0.993403,7.237648c-1.561061,0.425744 -2.980208,0.993403 -4.25744,1.702976l-5.818501,-4.399354l-3.264037,3.122122l4.25744,5.818501c-0.851488,1.277232 -1.419147,2.696379 -1.702976,4.25744l-7.237648,0.993403l0,4.541269" class="st6" id="XMLID_393_"/>
    </g>
    <path stroke="null" d="m6.018518,40.761328c-1.702976,-3.689781 -2.696379,-7.663392 -2.696379,-11.920831c0.141915,-15.468698 12.630405,-27.957188 27.957188,-27.957188c15.468698,0 27.957188,12.48849 27.957188,27.957188c0,4.115525 -0.851488,7.947221 -2.412549,11.353173" class="st5" id="XMLID_413_"/>
   </g>
   <g stroke="null" class="st0" id="XMLID_224_">
    <path stroke="null" d="m30.711669,37.497291l-8.798709,0c-0.567659,0 -0.993403,-0.425744 -0.993403,-0.993403l0,-2.12872c0,-0.567659 0.283829,-1.277232 0.851488,-1.561061l6.528074,-4.825098c0.567659,-0.425744 0.993403,-1.135317 0.993403,-1.844891l0,-0.993403c0,-0.993403 -0.851488,-1.844891 -1.844891,-1.844891l-4.683184,0c-0.993403,0 -1.844891,0.851488 -1.844891,1.844891l0,0l0,0.709573" class="st2" id="XMLID_219_"/>
    <path stroke="null" d="m40.219951,38.774523l0,-15.468698c0,0 0,0 0,0l-1.561061,0c0,0 0,0 0,0l-6.811904,8.23105c0,0 0,0.141915 0,0.141915l12.346575,0" class="st2" id="XMLID_220_"/>
    <path stroke="null" d="m30.853583,62.474271l-5.960416,0c-1.277232,0 -2.270635,-0.993403 -2.270635,-2.270635l0,0c0,-1.277232 0.993403,-2.270635 2.270635,-2.270635l5.960416,0c1.277232,0 2.270635,0.993403 2.270635,2.270635l0,0c0,1.277232 -0.993403,2.270635 -2.270635,2.270635z" class="st2" id="XMLID_221_"/>
    <path stroke="null" d="m9.850214,37.639206l-4.825098,0c-2.270635,0 -4.25744,-1.844891 -4.25744,-4.25744l0,-6.244245c0,-2.270635 1.844891,-4.25744 4.25744,-4.25744l4.825098,0l0,14.759124z" class="st2" id="XMLID_223_"/>
    <path stroke="null" d="m53.843758,37.639206l4.825098,0c2.270635,0 4.25744,-1.844891 4.25744,-4.25744l0,-6.244245c0,-2.270635 -1.844891,-4.25744 -4.25744,-4.25744l-4.825098,0l0,14.759124z" class="st2" id="XMLID_225_"/>
    <path stroke="null" d="m53.418014,19.048386c-2.12872,-9.934026 -11.069343,-17.313588 -21.571028,-17.313588l0,0c-11.211258,0 -20.577625,8.514879 -21.854857,19.442308" class="st5" id="XMLID_226_"/>
    <path stroke="null" d="m31.846986,60.203636c12.062746,0 21.996772,-9.934026 21.996772,-21.996772l0,-4.541269" class="st2" id="XMLID_222_"/>
   </g>
   <g stroke="null" class="st0" id="XMLID_292_">
    <g stroke="null" class="st3" id="XMLID_234_">
     <g stroke="null" id="XMLID_243_">
      <path stroke="null" d="m45.328878,8.972445l-6.811904,0c-1.844891,0 -3.405952,1.561061 -3.405952,3.405952l0,0c0,1.844891 1.561061,3.405952 3.405952,3.405952l3.264037,0c1.844891,0 3.405952,1.561061 3.405952,3.405952l0,0c0,1.844891 -1.561061,3.405952 -3.405952,3.405952l-6.953818,0" class="st6" id="XMLID_247_"/>
      <line stroke="null" y2="8.972445" x2="40.361865" y1="5.424578" x1="40.361865" class="st6" id="XMLID_246_"/>
      <line stroke="null" y2="25.57646" x2="40.361865" y1="22.312423" x1="40.361865" class="st6" id="XMLID_245_"/>
     </g>
     <circle stroke="null" r="16.036353" cy="15.500519" cx="40.078036" class="st6" id="XMLID_242_"/>
     <line stroke="null" y2="15.500519" x2="31.563157" y1="15.500519" x1="27.873375" class="st6" id="XMLID_240_"/>
     <line stroke="null" y2="15.500519" x2="52.424611" y1="15.500519" x1="48.592915" class="st6" id="XMLID_239_"/>
    </g>
    <path stroke="null" d="m-0.793386,59.068319l12.204661,0c0,0 0.141915,0 0.141915,-0.141915l0,-25.260809c0,0 0,-0.141915 -0.141915,-0.141915l-12.204661,0" class="st2" id="XMLID_417_"/>
    <path stroke="null" d="m11.55319,37.78112l15.894442,0c0.993403,0.141915 2.270635,0.709573 3.122122,1.419147l10.35977,9.650197c2.980208,2.270635 -0.141915,7.237648 -2.980208,4.683184l-10.643599,-7.663392l0,3.689781l9.934026,9.366367c0,0 5.960416,0.567659 6.811904,0.709573l11.069343,-4.399354c1.844891,-0.709573 3.97361,-0.851488 5.818501,-0.141915c1.419147,0.567659 2.696379,1.135317 2.980208,1.844891l-19.016564,7.663392c-0.709573,0.283829 -10.927429,0.283829 -10.927429,0.283829l-22.138687,-10.785514" class="st2" id="XMLID_228_"/>
    <path stroke="null" d="m38.233145,46.863659c6.10233,0 11.211258,4.683184 11.920831,10.501685" class="st2" id="XMLID_230_"/>
    <line stroke="null" y2="47.431317" x2="40.078036" y1="31.536875" x1="40.078036" class="st2" id="XMLID_233_"/>
    <path stroke="null" d="m50.721635,38.06495c0,0 -1.702976,4.541269 -3.689781,5.392757c-2.12872,0.851488 -6.528074,-1.277232 -6.528074,-1.277232s1.702976,-4.541269 3.689781,-5.392757c2.12872,-0.851488 6.528074,1.277232 6.528074,1.277232z" class="st2" id="XMLID_231_"/>
    <line stroke="null" y2="15.642434" x2="21.487216" y1="15.642434" x1="15.668715" class="st2" id="XMLID_236_"/>
    <line stroke="null" y2="9.256274" x2="22.480618" y1="7.269469" x1="17.087861" class="st2" id="XMLID_235_"/>
    <line stroke="null" y2="8.972445" x2="57.533539" y1="6.98564" x1="62.926296" class="st2" id="XMLID_252_"/>
    <line stroke="null" y2="15.358604" x2="58.668856" y1="15.358604" x1="64.487357" class="st2" id="XMLID_253_"/>
    <line stroke="null" y2="21.744764" x2="57.675454" y1="23.731569" x1="62.926296" class="st2" id="XMLID_254_"/>
    <line stroke="null" y2="21.886679" x2="22.622533" y1="23.873484" x1="17.229776" class="st2" id="XMLID_262_"/>
   </g>
   <g stroke="null" class="st0" id="XMLID_293_">
    <g stroke="null" class="st3" id="XMLID_316_">
     <path stroke="null" d="m36.24634,14.790946l-5.676586,0c-1.561061,0 -2.838293,1.277232 -2.838293,2.838293l0,0c0,1.561061 1.277232,2.838293 2.838293,2.838293l2.696379,0c1.561061,0 2.838293,1.277232 2.838293,2.838293l0,0c0,1.561061 -1.277232,2.838293 -2.838293,2.838293l-5.818501,0" class="st6" id="XMLID_319_"/>
     <line stroke="null" y2="14.790946" x2="32.130815" y1="11.952653" x1="32.130815" class="st6" id="XMLID_318_"/>
     <line stroke="null" y2="28.698582" x2="32.130815" y1="26.002204" x1="32.130815" class="st6" id="XMLID_317_"/>
    </g>
    <circle stroke="null" r="13.339973" cy="20.325617" cx="31.846986" class="st2" id="XMLID_315_"/>
    <path stroke="null" d="m16.520203,8.688616c3.689781,-5.250842 9.934026,-8.656794 16.887844,-8.372965c6.953818,0.283829 12.772319,3.97361 16.178271,9.366367" class="st7" id="XMLID_298_"/>
    <line stroke="null" y2="20.325617" x2="24.893168" y1="20.325617" x1="21.62913" class="st2" id="XMLID_314_"/>
    <line stroke="null" y2="20.325617" x2="42.206756" y1="20.325617" x1="39.084633" class="st2" id="XMLID_313_"/>
    <path stroke="null" d="m55.830563,63.893418l0,-10.217855c0,0 0,-0.141915 -0.141915,-0.141915l-21.145284,0c0,0 -0.141915,0 -0.141915,0.141915l0,10.217855" class="st2" id="XMLID_310_"/>
    <path stroke="null" d="m37.949316,53.533647l0,-13.198063c0.141915,-0.851488 0.709573,-1.986805 1.277232,-2.554464l8.089136,-8.656794c1.986805,-2.554464 6.10233,0.141915 3.831696,2.412549l-6.38616,8.940623l3.122122,0l7.805306,-8.23105c0,0 0.425744,-4.967013 0.709573,-5.676586l-3.689781,-9.224453c-0.567659,-1.561061 -0.709573,-3.264037 -0.141915,-4.825098c0.425744,-1.135317 0.993403,-2.12872 1.561061,-2.412549l6.38616,15.894442c0.283829,0.567659 0.141915,9.082538 0.141915,9.082538l-8.940623,18.448906" class="st2" id="XMLID_309_"/>
    <path stroke="null" d="m7.863409,63.893418l0,-10.217855c0,0 0,-0.141915 0.141915,-0.141915l21.145284,0c0,0 0.141915,0 0.141915,0.141915l0,10.217855" class="st2" id="XMLID_297_"/>
    <path stroke="null" d="m25.744656,53.533647l0,-13.198063c-0.141915,-0.851488 -0.709573,-1.986805 -1.135317,-2.554464l-8.089136,-8.656794c-1.986805,-2.554464 -6.10233,0.141915 -3.831696,2.412549l6.38616,8.940623l-3.122122,0l-7.805306,-8.23105c0,0 -0.425744,-4.967013 -0.709573,-5.676586l3.689781,-9.224453c0.567659,-1.561061 0.709573,-3.264037 0.141915,-4.825098c-0.425744,-1.135317 -0.993403,-2.12872 -1.561061,-2.412549l-6.38616,15.894442c-0.283829,0.567659 -0.141915,9.082538 -0.141915,9.082538l8.940623,18.448906" class="st2" id="XMLID_296_"/>
   </g>
   <g stroke="null" class="st0" id="XMLID_248_">
    <path stroke="null" d="m4.031713,20.893276l-2.696379,4.683184l30.369737,34.627177c0.141915,0.141915 0.283829,0.141915 0.283829,0l30.369737,-34.627177l-7.663392,-13.198063l-37.607384,0" class="st2" id="XMLID_256_"/>
    <line stroke="null" y2="25.57646" x2="62.500552" y1="25.57646" x1="1.19342" class="st2" id="XMLID_255_"/>
    <line stroke="null" y2="28.414753" x2="17.797435" y1="60.345551" x1="31.846986" class="st2" id="XMLID_485_"/>
    <line stroke="null" y2="28.414753" x2="45.470793" y1="59.635978" x1="31.846986" class="st2" id="XMLID_484_"/>
    <line stroke="null" y2="59.635978" x2="31.846986" y1="28.414753" x1="31.846986" class="st2" id="XMLID_791_"/>
    <polyline stroke="null" points="25.035084077218926,11.810739591341644 16.945945735587884,22.880080838255935 14.817227716194566,20.04178756587885 " class="st2" id="XMLID_238_"/>
    <polyline stroke="null" points="39.65229578438357,11.810739591341644 31.563153572973533,22.880080838255935 24.325509791679906,13.5137132329005 " class="st2" id="XMLID_250_"/>
    <polyline stroke="null" points="54.127587216749816,11.810739591341644 46.180365280138176,22.880080838255935 38.942717629065555,13.5137132329005 " class="st2" id="XMLID_251_"/>
    <g stroke="null" class="st3" id="XMLID_249_">
     <line stroke="null" y2="7.837128" x2="8.714897" y1="3.863517" x1="8.714897" class="st6" id="XMLID_258_"/>
     <line stroke="null" y2="10.107762" x2="12.688507" y1="8.120957" x1="16.094459" class="st6" id="XMLID_259_"/>
     <line stroke="null" y2="14.649031" x2="12.688507" y1="16.635836" x1="16.094459" class="st6" id="XMLID_261_"/>
     <line stroke="null" y2="16.919666" x2="8.714897" y1="20.893276" x1="8.714897" class="st6" id="XMLID_265_"/>
     <line stroke="null" y2="14.649031" x2="4.741286" y1="16.635836" x1="1.335334" class="st6" id="XMLID_269_"/>
     <line stroke="null" y2="10.107762" x2="4.741286" y1="8.120957" x1="1.335334" class="st6" id="XMLID_271_"/>
    </g>
   </g>
   <g stroke="null" class="st0" id="XMLID_48_">
    <polygon stroke="null" points="30.853583157213507,57.22342904704078 6.586176355600742,57.22342904704078 4.883201262874763,53.675561489124675 4.883201262874763,43.31579162541516 32.556560668551356,43.31579162541516 32.556560668551356,53.533645084105274 " class="st2" id="XMLID_54_"/>
    <rect stroke="null" height="4.399354" width="7.805306" class="st2" y="57.223429" x="14.817227" id="XMLID_53_"/>
    <path stroke="null" d="m37.949316,18.480727c-1.702976,-8.940623 -9.650197,-15.752527 -19.158479,-15.752527c-10.785514,0 -19.442308,8.656794 -19.442308,19.442308c0,6.811904 3.547866,12.914234 8.940623,16.320186l0,4.825098l21.145284,0l0,-4.825098c4.399354,-2.838293 7.663392,-7.379562 8.656794,-12.772319" class="st2" id="XMLID_57_"/>
    <line stroke="null" y2="50.26961" x2="16.945947" y1="50.26961" x1="4.883201" class="st2" id="XMLID_51_"/>
    <line stroke="null" y2="26.853692" x2="53.559929" y1="16.210092" x1="53.559929" class="st2" id="XMLID_49_"/>
    <path stroke="null" d="m53.701843,31.820705l-0.425744,0c-2.838293,0 -5.250842,-2.270635 -5.250842,-5.250842l0,-10.075941c0,-2.838293 2.270635,-5.250842 5.250842,-5.250842l0.425744,0c2.838293,0 5.250842,2.270635 5.250842,5.250842l0,10.075941c0,2.980208 -2.270635,5.250842 -5.250842,5.250842z" class="st2" id="XMLID_13_"/>
    <path stroke="null" d="m58.952686,16.210092c2.980208,0 5.392757,2.412549 5.392757,5.392757s-2.412549,5.392757 -5.392757,5.392757" class="st2" id="XMLID_50_"/>
    <line stroke="null" y2="21.602849" x2="48.876745" y1="21.602849" x1="18.790837" class="st2" id="XMLID_55_"/>
    <path stroke="null" d="m24.183594,18.054983c0,-2.980208 -2.412549,-5.392757 -5.392757,-5.392757c-2.980208,0 -5.392757,2.412549 -5.392757,5.392757c0,1.844891 0.993403,3.547866 2.412549,4.541269l0,8.656794l5.960416,0l0,-8.656794c1.419147,-0.993403 2.412549,-2.696379 2.412549,-4.541269z" class="st2" id="XMLID_141_"/>
   </g>
   <g stroke="null" class="st0" id="XMLID_289_">
    <path stroke="null" d="m57.391624,58.500661l0,-3.97361c0,0 0,0 0,0l-50.663533,0c0,0 0,0 0,0l0,3.97361l-3.547866,0c0,0 -0.141915,0 -0.141915,0.141915l0,5.250842l57.901181,0l0,-5.250842c0,0 0,-0.141915 -0.141915,-0.141915l-3.405952,0z" class="st2" id="XMLID_152_"/>
    <line stroke="null" y2="58.500661" x2="32.982303" y1="58.500661" x1="9.42447" class="st2" id="XMLID_74_"/>
    <polyline stroke="null" points="8.71489679360593,53.95939816894247 8.71489679360593,49.98577752618917 19.642326472724562,49.98577752618917 19.642326472724562,53.95939816894247 " class="st2" id="XMLID_139_"/>
    <polyline stroke="null" points="26.59614131375838,53.95939816894247 26.59614131375838,49.98577752618917 37.523569057987515,49.98577752618917 37.523569057987515,53.95939816894247 " class="st2" id="XMLID_52_"/>
    <polyline stroke="null" points="44.619300304040735,53.95939816894247 44.619300304040735,49.98577752618917 55.40481551302946,49.98577752618917 55.40481551302946,53.95939816894247 " class="st2" id="XMLID_154_"/>
    <polyline stroke="null" points="8.71489679360593,20.609445446398468 8.71489679360593,24.724968949944696 19.642326472724562,24.724968949944696 19.642326472724562,20.609445446398468 " class="st2" id="XMLID_208_"/>
    <polyline stroke="null" points="3.464054142963846,17.48732516865107 3.464054142963846,20.46753291115806 3.464054142963846,20.46753291115806 59.662253486705595,20.46753291115806 59.662253486705595,20.46753291115806 59.662253486705595,16.352007472722335 " class="st2" id="XMLID_286_"/>
    <polyline stroke="null" points="26.59614131375838,20.609445446398468 26.59614131375838,24.724968949944696 37.523569057987515,24.724968949944696 37.523569057987515,20.609445446398468 " class="st2" id="XMLID_192_"/>
    <polyline stroke="null" points="44.619300304040735,20.609445446398468 44.619300304040735,24.724968949944696 55.40481551302946,24.724968949944696 55.40481551302946,20.609445446398468 " class="st2" id="XMLID_184_"/>
    <line stroke="null" y2="49.985781" x2="10.985531" y1="24.724972" x1="10.985531" class="st2" id="XMLID_229_"/>
    <line stroke="null" y2="49.985781" x2="17.65552" y1="24.724972" x1="17.65552" class="st2" id="XMLID_167_"/>
    <line stroke="null" y2="49.985781" x2="28.724863" y1="24.724972" x1="28.724863" class="st2" id="XMLID_274_"/>
    <line stroke="null" y2="49.985781" x2="35.394852" y1="24.724972" x1="35.394852" class="st2" id="XMLID_241_"/>
    <line stroke="null" y2="49.985781" x2="46.60611" y1="24.724972" x1="46.60611" class="st2" id="XMLID_285_"/>
    <line stroke="null" y2="49.985781" x2="53.276099" y1="24.724972" x1="53.276099" class="st2" id="XMLID_279_"/>
    <path stroke="null" d="m-2.354447,20.609447l34.059518,-20.435711c0,0 0,0 0,0l34.343347,20.151881" class="st2" id="XMLID_287_"/>
    <path stroke="null" d="m29.292522,7.837128l-13.339978,7.947221c-0.141915,0.141915 -0.141915,0.283829 0.141915,0.283829l25.544638,0" class="st2" id="XMLID_290_"/>
   </g>
   <g stroke="null" class="st0" id="XMLID_341_">
    <g stroke="null" class="st3" id="XMLID_334_">
     <path stroke="null" d="m32.27273,63.183844l-28.099102,0c-0.283829,0 -0.567659,-0.283829 -0.567659,-0.567659l0,-40.161848c0,-0.283829 0.283829,-0.567659 0.567659,-0.567659l28.099102,0c0.283829,0 0.567659,0.283829 0.567659,0.567659l0,40.161848c0,0.283829 -0.283829,0.567659 -0.567659,0.567659z" class="st6" id="XMLID_299_"/>
     <polyline stroke="null" points="28.58294776535604,34.09134139252387 7.8634090053817545,34.09134139252387 7.8634090053817545,26.569864801191443 " class="st6" id="XMLID_305_"/>
     <line stroke="null" y2="42.464304" x2="11.127446" y1="42.464304" x1="8.856811" class="st6" id="XMLID_306_"/>
     <line stroke="null" y2="42.464304" x2="16.520203" y1="42.464304" x1="14.249568" class="st6" id="XMLID_304_"/>
     <line stroke="null" y2="42.464304" x2="22.054874" y1="42.464304" x1="19.642325" class="st6" id="XMLID_307_"/>
     <line stroke="null" y2="42.464304" x2="27.447631" y1="42.464304" x1="25.035082" class="st6" id="XMLID_312_"/>
     <line stroke="null" y2="47.147488" x2="11.26936" y1="47.147488" x1="8.856811" class="st6" id="XMLID_323_"/>
     <line stroke="null" y2="47.147488" x2="16.662117" y1="47.147488" x1="14.391483" class="st6" id="XMLID_322_"/>
     <line stroke="null" y2="47.147488" x2="22.196789" y1="47.147488" x1="19.78424" class="st6" id="XMLID_321_"/>
     <line stroke="null" y2="47.147488" x2="27.589546" y1="47.147488" x1="25.176997" class="st6" id="XMLID_320_"/>
     <line stroke="null" y2="51.830672" x2="11.411275" y1="51.830672" x1="8.998726" class="st6" id="XMLID_329_"/>
     <line stroke="null" y2="51.830672" x2="16.804032" y1="51.830672" x1="14.533398" class="st6" id="XMLID_327_"/>
     <line stroke="null" y2="51.830672" x2="22.338704" y1="51.830672" x1="19.926155" class="st6" id="XMLID_326_"/>
     <line stroke="null" y2="51.830672" x2="27.731461" y1="51.830672" x1="25.318912" class="st6" id="XMLID_324_"/>
     <line stroke="null" y2="56.371941" x2="11.55319" y1="56.371941" x1="9.140641" class="st6" id="XMLID_333_"/>
     <line stroke="null" y2="56.371941" x2="16.945947" y1="56.371941" x1="14.675312" class="st6" id="XMLID_332_"/>
     <line stroke="null" y2="56.371941" x2="22.480618" y1="56.371941" x1="20.068069" class="st6" id="XMLID_331_"/>
     <line stroke="null" y2="56.371941" x2="27.873375" y1="56.371941" x1="25.460826" class="st6" id="XMLID_330_"/>
    </g>
    <path stroke="null" d="m15.242971,16.352007c1.844891,-8.798709 9.508282,-15.326783 18.732735,-15.326783c10.643599,0 19.158479,8.514879 19.158479,19.158479c0,9.934026 -7.521477,18.023162 -17.171674,19.016564" class="st2" id="XMLID_336_"/>
    <path stroke="null" d="m60.088003,20.325617c0,13.481893 -10.217855,24.551236 -23.274004,25.970382" class="st7" id="XMLID_343_"/>
    <polyline stroke="null" points="34.259538179889205,2.3024558228279943 34.259538179889205,20.183702036008754 52.85035505069118,20.183702036008754 " class="st2" id="XMLID_337_"/>
    <line stroke="null" y2="15.21669" x2="52.566526" y1="20.183703" x1="47.599513" class="st2" id="XMLID_342_"/>
    <line stroke="null" y2="10.391591" x2="50.437806" y1="19.899874" x1="40.929524" class="st2" id="XMLID_335_"/>
    <line stroke="null" y2="6.559896" x2="47.315684" y1="19.332215" x1="34.543364" class="st2" id="XMLID_338_"/>
    <line stroke="null" y2="3.579688" x2="43.483988" y1="12.662226" x1="34.40145" class="st2" id="XMLID_339_"/>
    <line stroke="null" y2="1.734797" x2="38.233145" y1="5.992237" x1="34.11762" class="st2" id="XMLID_340_"/>
   </g>
   <g stroke="null" class="st0" id="XMLID_380_">
    <g stroke="null" class="st3" id="XMLID_346_">
     <path stroke="null" d="m20.209984,40.051755l0,-2.696379c0,-0.567659 0.425744,-1.135317 0.851488,-1.277232l7.379562,-2.554464l0,-4.115525" class="st6" id="XMLID_357_"/>
     <path stroke="null" d="m43.483988,40.051755l0,-2.696379c0,-0.567659 -0.425744,-1.135317 -0.851488,-1.277232l-7.521477,-2.554464l0,-4.115525" class="st6" id="XMLID_355_"/>
     <path stroke="null" d="m37.523572,20.041788c0,-3.122122 -2.554464,-5.676586 -5.676586,-5.676586c-3.122122,0 -5.676586,2.554464 -5.676586,5.676586l0.567659,6.669989c0,0.851488 0.567659,1.702976 1.419147,2.12872l2.696379,1.844891l1.844891,0l2.838293,-1.844891c0.851488,-0.425744 1.277232,-1.277232 1.419147,-2.12872l0.567659,-6.669989z" class="st6" id="XMLID_354_"/>
     <polyline stroke="null" points="28.58294776535604,33.523683512004254 30.711668687083602,35.93623143910213 33.124218549070974,35.93623143910213 35.25293753590904,33.523683512004254 " class="st6" id="XMLID_347_"/>
    </g>
    <path stroke="null" d="m53.559929,27.279436c0,2.838293 -2.696379,4.967013 -3.689781,7.521477c-0.993403,2.554464 -0.851488,5.960416 -2.696379,7.805306c-1.844891,1.844891 -5.392757,1.702976 -7.805306,2.696379c-2.554464,0.993403 -4.683184,3.547866 -7.521477,3.547866s-4.967013,-2.696379 -7.521477,-3.689781c-2.554464,-0.993403 -5.960416,-0.851488 -7.805306,-2.696379c-1.844891,-1.844891 -1.702976,-5.392757 -2.696379,-7.805306c-0.993403,-2.412549 -3.689781,-4.683184 -3.689781,-7.521477c0,-2.838293 2.696379,-4.967013 3.689781,-7.521477c0.993403,-2.554464 0.851488,-5.960416 2.696379,-7.805306c1.844891,-1.844891 5.392757,-1.702976 7.805306,-2.696379c2.412549,-0.993403 4.683184,-3.689781 7.521477,-3.689781s4.967013,2.696379 7.521477,3.689781c2.554464,0.993403 5.960416,0.851488 7.805306,2.696379c1.844891,1.844891 1.702976,5.392757 2.696379,7.805306c0.993403,2.554464 3.689781,4.825098 3.689781,7.663392z" class="st2" id="XMLID_345_"/>
    <path stroke="null" d="m41.639097,47.998976l0,15.752527c0,0.141915 -0.141915,0.141915 -0.141915,0.141915l-9.650197,-4.399354l-9.650197,4.399354c0,0 -0.141915,0 -0.141915,-0.141915l0,-15.752527" class="st2" id="XMLID_349_"/>
    <path stroke="null" d="m15.242971,48.282805c-6.244245,-4.967013 -10.217855,-12.48849 -10.217855,-21.145284c0,-14.759124 12.062746,-26.82187 26.82187,-26.82187s26.82187,12.062746 26.82187,26.82187c0,8.514879 -3.97361,16.178271 -10.217855,21.145284" class="st7" id="XMLID_350_"/>
   </g>
   <g stroke="null" class="st0" id="XMLID_374_">
    <path stroke="null" d="m46.60611,57.649173l0,-4.967013c0,-0.141915 -0.141915,-0.141915 -0.141915,-0.141915l-29.802078,0c-0.141915,0 -0.141915,0.141915 -0.141915,0.141915l0,4.967013l-7.805306,0c-0.141915,0 -0.141915,0.141915 -0.141915,0.141915l0,5.818501l46.264179,0l0,-5.818501c0,-0.141915 -0.141915,-0.141915 -0.141915,-0.141915l-8.089136,0z" class="st2" id="XMLID_358_"/>
    <line stroke="null" y2="57.649173" x2="33.691876" y1="57.649173" x1="19.78424" class="st2" id="XMLID_352_"/>
    <path stroke="null" d="m28.01529,4.998834l0,-0.851488c0,-1.986805 1.702976,-3.689781 3.689781,-3.689781l0,0c1.986805,0 3.689781,1.702976 3.689781,3.689781l0,0.851488" class="st2" id="XMLID_361_"/>
    <line stroke="null" y2="18.054983" x2="29.292522" y1="51.121098" x1="29.292522" class="st2" id="XMLID_372_"/>
    <line stroke="null" y2="51.121098" x2="34.11762" y1="18.054983" x1="34.11762" class="st2" id="XMLID_360_"/>
    <circle stroke="null" r="6.102329" cy="12.378397" cx="31.705071" class="st2" id="XMLID_353_"/>
    <path stroke="null" d="m27.163802,12.378397l-12.48849,0c0,1.702976 -1.419147,3.264037 -3.264037,3.264037c-1.702976,0 -3.264037,-1.419147 -3.264037,-3.264037l0,-1.419147" class="st2" id="XMLID_363_"/>
    <path stroke="null" d="m36.813999,12.378397l12.48849,0c0,1.702976 1.419147,3.264037 3.264037,3.264037c1.702976,0 3.264037,-1.419147 3.264037,-3.264037l0,-1.419147" class="st2" id="XMLID_362_"/>
    <line stroke="null" y2="31.394961" x2="19.926155" y1="15.500519" x1="12.830422" class="st2" id="XMLID_364_"/>
    <line stroke="null" y2="31.394961" x2="2.896396" y1="15.500519" x1="9.992128" class="st2" id="XMLID_369_"/>
    <path stroke="null" d="m1.902993,31.536875c0,5.108928 4.25744,9.366367 9.366367,9.366367s9.366367,-4.25744 9.366367,-9.366367l-18.732735,0z" class="st2" id="XMLID_366_"/>
    <line stroke="null" y2="31.394961" x2="43.767817" y1="15.500519" x1="50.86355" class="st2" id="XMLID_371_"/>
    <line stroke="null" y2="31.394961" x2="60.797576" y1="15.500519" x1="53.701843" class="st2" id="XMLID_368_"/>
    <path stroke="null" d="m61.790979,31.536875c0,5.108928 -4.25744,9.366367 -9.366367,9.366367s-9.366367,-4.25744 -9.366367,-9.366367l18.732735,0z" class="st2" id="XMLID_365_"/>
    <line stroke="null" y2="12.378397" x2="33.124218" y1="12.378397" x1="30.285925" class="st2" id="XMLID_373_"/>
   </g>
   <g stroke="null" class="st0" id="XMLID_402_">
    <path stroke="null" d="m10.701702,53.533647l-9.650197,0c-0.141915,0 -0.141915,0 -0.141915,-0.141915l0,-41.722909c0,-0.141915 0,-0.141915 0.141915,-0.141915l56.482034,0c0.141915,0 0.141915,0 0.141915,0.141915l0,4.825098" class="st2" id="XMLID_398_"/>
    <line stroke="null" y2="30.259644" x2="58.668856" y1="30.259644" x1="39.084633" class="st2" id="XMLID_399_"/>
    <line stroke="null" y2="35.93623" x2="58.668856" y1="35.93623" x1="39.084633" class="st2" id="XMLID_396_"/>
    <line stroke="null" y2="41.612816" x2="58.668856" y1="41.612816" x1="39.084633" class="st2" id="XMLID_400_"/>
    <line stroke="null" y2="47.147488" x2="49.870147" y1="47.147488" x1="39.084633" class="st2" id="XMLID_401_"/>
    <path stroke="null" d="m54.269502,18.196898l-19.158479,0c0,0 -0.141915,0 -0.141915,0.141915l0,34.911006c0,0 0,0.141915 0.141915,0.141915l27.531444,0c0,0 0.141915,0 0.141915,-0.141915l0,-26.538041l-8.514879,-8.514879z" class="st2" id="XMLID_405_"/>
    <path stroke="null" d="m54.269502,18.196898l0,8.372965c0,0 0,0.141915 0.141915,0.141915l8.372965,0" class="st2" id="XMLID_397_"/>
    <polyline stroke="null" points="15.668715504418742,27.56326415721128 15.668715504418742,32.530280286205425 10.843616747888746,32.530280286205425 10.843616747888746,27.56326415721128 " class="st2" id="XMLID_404_"/>
    <path stroke="null" d="m16.378288,11.243079l0,-7.379562c0,-0.851488 0.567659,-1.419147 1.419147,-1.419147l22.138687,0c0.851488,0 1.419147,0.567659 1.419147,1.419147l0,7.379562" class="st2" id="XMLID_406_"/>
    <line stroke="null" y2="28.130924" x2="31.9889" y1="28.130924" x1="0.90959" class="st2" id="XMLID_408_"/>
    <g stroke="null" class="st3" id="XMLID_746_">
     <polygon stroke="null" points="54.979074037529244,56.65577116652116 57.95927984514674,59.21022775908045 54.979074037529244,61.622783425736316 13.398081080006023,61.622783425736316 13.398081080006023,56.65577116652116 " class="st6" id="XMLID_735_"/>
     <line stroke="null" y2="59.210234" x2="12.830422" y1="59.210234" x1="8.572982" class="st6" id="XMLID_741_"/>
     <line stroke="null" y2="59.210234" x2="61.22332" y1="59.210234" x1="57.107795" class="st6" id="XMLID_743_"/>
     <line stroke="null" y2="56.65577" x2="37.523572" y1="61.764698" x1="37.523572" class="st6" id="XMLID_742_"/>
     <line stroke="null" y2="56.65577" x2="51.289294" y1="61.764698" x1="51.289294" class="st6" id="XMLID_736_"/>
     <polyline stroke="null" points="16.378289789957762,56.65577116652116 16.378289789957762,53.24982388340345 30.002094401544582,53.24982388340345 " class="st6" id="XMLID_744_"/>
    </g>
   </g>
   <g stroke="null" class="st0" id="XMLID_409_">
    <g stroke="null" class="st3" id="XMLID_288_">
     <g stroke="null" id="XMLID_300_">
      <path stroke="null" d="m35.962511,7.837128l-6.10233,0c-1.702976,0 -2.980208,1.419147 -2.980208,2.980208l0,0c0,1.702976 1.419147,2.980208 2.980208,2.980208l2.980208,0c1.702976,0 2.980208,1.419147 2.980208,2.980208l0,0c0,1.702976 -1.419147,2.980208 -2.980208,2.980208l-6.38616,0" class="st6" id="XMLID_303_"/>
      <line stroke="null" y2="7.837128" x2="31.421242" y1="4.715005" x1="31.421242" class="st6" id="XMLID_302_"/>
      <line stroke="null" y2="23.021996" x2="31.421242" y1="20.041788" x1="31.421242" class="st6" id="XMLID_301_"/>
     </g>
     <circle stroke="null" r="12.772316" cy="13.797543" cx="31.137413" class="st6" id="XMLID_294_"/>
    </g>
    <path stroke="null" d="m43.767817,26.853692c1.844891,-4.825098 6.10233,-5.676586 7.805306,-6.38616c0.283829,-0.141915 0.567659,0.141915 0.567659,0.425744l-2.696379,9.792111" class="st2" id="XMLID_420_"/>
    <path stroke="null" d="m20.351899,25.434545c-4.683184,3.405952 -7.663392,8.514879 -7.663392,14.33338c0,4.541269 1.844891,8.798709 5.108928,11.920831l0,11.211258c0,0.141915 0,0.141915 0.141915,0.141915l10.35977,0c0.141915,0 0.141915,0 0.141915,-0.141915l0,-5.392757c1.844891,0.425744 3.689781,0.709573 5.534672,0.709573c1.135317,0 2.412549,-0.141915 3.547866,-0.283829l0,4.967013c0,0.141915 0,0.141915 0.141915,0.141915l10.35977,0c0.141915,0 0.141915,0 0.141915,-0.141915l0,-9.366367c2.270635,-1.702976 3.97361,-3.831696 5.250842,-6.10233c0.425744,-0.851488 1.419147,-1.419147 2.412549,-1.419147l3.122122,0c0,0 0,0 0,0l0,-8.656794c0,0 0,0 0,0l-1.844891,0c-1.135317,0 -2.12872,-0.851488 -2.412549,-1.844891c-0.709573,-2.554464 -2.12872,-4.967013 -3.97361,-6.953818" class="st2" id="XMLID_416_"/>
    <path stroke="null" d="m45.612708,24.157313c-0.709573,-0.425744 -1.561061,-0.851488 -2.270635,-1.135317" class="st2" id="XMLID_414_"/>
    <line stroke="null" y2="31.536875" x2="41.213353" y1="31.536875" x1="23.332106" class="st2" id="XMLID_419_"/>
    <path stroke="null" d="m12.688507,39.626011c-1.277232,1.702976 -3.264037,2.838293 -5.392757,2.696379c-0.283829,0 -0.567659,0 -0.851488,-0.141915c-0.425744,-0.283829 -0.567659,-0.709573 -0.851488,-1.135317c-0.283829,-0.709573 -0.709573,-1.561061 -0.567659,-2.412549c0,-0.851488 0.425744,-1.702976 1.277232,-1.986805c0.709573,-0.283829 1.561061,0 2.12872,0.567659c0.567659,0.567659 0.709573,1.419147 0.709573,2.12872c0,2.412549 -1.844891,4.683184 -4.115525,5.108928" class="st2" id="XMLID_411_"/>
    <line stroke="null" y2="36.503889" x2="45.754622" y1="36.503889" x1="41.922927" class="st2" id="XMLID_415_"/>
   </g>
   <g stroke="null" class="st0" id="XMLID_445_">
    <path stroke="null" d="m34.11762,34.091339l6.811904,-1.277232c2.270635,0.993403 4.683184,1.419147 7.379562,0.993403c5.960416,-0.851488 10.785514,-5.676586 11.495087,-11.637002c0.993403,-8.656794 -6.38616,-16.036356 -15.042954,-14.901039c-5.960416,0.709573 -10.785514,5.534672 -11.637002,11.637002c-0.425744,3.264037 0.425744,6.38616 1.986805,8.798709l-1.135317,6.244245c0,0.141915 0.141915,0.141915 0.141915,0.141915z" class="st2" id="XMLID_428_"/>
    <g stroke="null" class="st3" id="XMLID_421_">
     <path stroke="null" d="m38.091231,51.546842l4.825098,0c1.561061,0 2.838293,-1.277232 2.838293,-2.838293l0,0c0,-1.561061 -1.277232,-2.838293 -2.838293,-2.838293l-4.825098,0" class="st6" id="XMLID_747_"/>
     <path stroke="null" d="m36.104426,57.081514l3.831696,0c1.561061,0 2.838293,-1.277232 2.838293,-2.838293l0,0c0,-1.561061 -1.277232,-2.838293 -2.838293,-2.838293l-3.831696,0" class="st6" id="XMLID_431_"/>
     <path stroke="null" d="m35.820596,57.081514l1.135317,0c1.561061,0 2.838293,1.277232 2.838293,2.838293l0,0c0,1.561061 -1.277232,2.838293 -2.838293,2.838293l-15.894442,0c-0.709573,0 -1.419147,-0.283829 -1.844891,-0.851488l-2.838293,-2.838293c-0.425744,-0.425744 -0.993403,-0.709573 -1.561061,-0.709573l-1.702976,0" class="st6" id="XMLID_745_"/>
     <path stroke="null" d="m36.104426,45.870256l5.676586,0c1.561061,0 2.838293,-1.277232 2.838293,-2.838293l0,0c0,-1.561061 -1.277232,-2.838293 -2.838293,-2.838293l-10.643599,0l-6.669989,0c0,0 2.270635,-5.818501 2.270635,-8.514879c0,-1.277232 0.283829,-3.831696 -0.425744,-4.967013c-0.283829,-0.425744 -2.554464,-0.425744 -2.838293,0c0,0 -2.12872,6.528074 -3.547866,8.514879c-0.851488,1.135317 -3.831696,5.108928 -3.831696,5.108928l-1.844891,0" class="st6" id="XMLID_430_"/>
     <path stroke="null" d="m-1.928703,37.355376l15.326783,0c0.141915,0 0.141915,0 0.141915,0.141915l0,23.415919c0,0.141915 0,0.141915 -0.141915,0.141915l-15.326783,0" class="st6" id="XMLID_423_"/>
    </g>
    <path stroke="null" d="m46.464196,1.592883c10.501685,0 19.016564,8.514879 19.016564,19.016564s-8.514879,19.016564 -19.016564,19.016564" class="st2" id="XMLID_441_"/>
    <path stroke="null" d="m27.447631,20.609447c0,-10.501685 8.514879,-19.016564 19.016564,-19.016564" class="st7" id="XMLID_440_"/>
    <line stroke="null" y2="16.210092" x2="53.276099" y1="16.210092" x1="39.368463" class="st2" id="XMLID_442_"/>
    <line stroke="null" y2="20.609447" x2="53.418014" y1="20.609447" x1="39.510377" class="st2" id="XMLID_439_"/>
    <line stroke="null" y2="25.150716" x2="46.60611" y1="25.150716" x1="39.652292" class="st2" id="XMLID_444_"/>
   </g>
  </g>
  <g class="st0" id="Icon_text">
   <text fill="#4C5159" class="st9 st10" transform="matrix(1,0,0,1,-158.0612,-73.1667) " id="XMLID_15_">IDEA</text>
   <g class="st3" id="XMLID_65_">
    <text class="st8 st9 st10" transform="matrix(1,0,0,1,-76.9106,-73.1667) " id="XMLID_432_">ANALYSIS</text>
   </g>
   <g class="st3" id="XMLID_66_">
    <text class="st8 st9 st10" transform="matrix(1,0,0,1,5.1667,-73.1667) " id="XMLID_433_">M-COMMERCE</text>
   </g>
   <g class="st3" id="XMLID_101_">
    <text class="st8 st9 st10" transform="matrix(1,0,0,1,109.0616,-73.167) " id="XMLID_434_">MONEY</text>
   </g>
   <g class="st3" id="XMLID_103_">
    <text transform="matrix(1,0,0,1,197.1454,-73.1669) " id="XMLID_435_">
     <tspan id="svg_1" class="st8 st9 st10" y="0" x="0">PROJECT</tspan>
     <tspan id="svg_2" class="st8 st9 st10" y="7" x="-10.8">DEVELOPMENT</tspan>
    </text>
   </g>
   <g class="st3" id="XMLID_118_">
    <text class="st8 st9 st10" transform="matrix(1,0,0,1,-166.5963,21.0416) " id="XMLID_436_">GROWTH</text>
   </g>
   <g class="st3" id="XMLID_138_">
    <text transform="matrix(1,0,0,1,-77.1425,21.0416) " id="XMLID_437_">
     <tspan id="svg_3" class="st8 st9 st10" y="0" x="0">BUSINESS</tspan>
     <tspan id="svg_4" class="st8 st9 st10" y="7" x="5.3">VISION</tspan>
    </text>
   </g>
   <g class="st3" id="XMLID_134_">
    <text transform="matrix(1,0,0,1,23.2642,21.0416) " id="XMLID_438_">
     <tspan id="svg_5" class="st8 st9 st10" y="0" x="0">IDEA</tspan>
     <tspan id="svg_6" class="st8 st9 st10" y="7" x="-18.8">DEVELOPMENT</tspan>
    </text>
   </g>
   <g class="st3" id="XMLID_168_">
    <text class="st8 st9 st10" transform="matrix(1,0,0,1,104.3105,21.0418) " id="XMLID_447_">MANAGER</text>
   </g>
   <g class="st3" id="XMLID_176_">
    <text transform="matrix(1,0,0,1,202.4471,21.0416) " id="XMLID_448_">
     <tspan id="svg_7" class="st8 st9 st10" y="0" x="0">VIDEO</tspan>
     <tspan id="svg_8" class="st8 st9 st10" y="7" x="-6.2">MESSAGE</tspan>
    </text>
   </g>
   <g class="st3" id="XMLID_185_">
    <text class="st8 st9 st10" transform="matrix(1,0,0,1,-168.2577,117.6666) " id="XMLID_449_">STRATEGY</text>
   </g>
   <g class="st3" id="XMLID_215_">
    <text class="st8 st9 st10" transform="matrix(1,0,0,1,-75.9106,117.667) " id="XMLID_450_">SERVICES</text>
   </g>
   <g class="st3" id="XMLID_227_">
    <text class="st8 st9 st10" transform="matrix(1,0,0,1,14.6032,117.667) " id="XMLID_451_">SUPPORT</text>
   </g>
   <g class="st3" id="XMLID_237_">
    <text class="st8 st9 st10" transform="matrix(1,0,0,1,111.2283,117.6666) " id="XMLID_452_">VALUE</text>
   </g>
   <g class="st3" id="XMLID_260_">
    <text transform="matrix(1,0,0,1,196.2038,117.6666) " id="XMLID_466_">
     <tspan id="svg_9" class="st8 st9 st10" y="0" x="0">PREMIUM</tspan>
     <tspan id="svg_10" class="st8 st9 st10" y="7" x="2.1">QUALITY</tspan>
    </text>
   </g>
   <g class="st3" id="XMLID_56_">
    <text transform="matrix(1,0,0,1,-158.3332,211.1663) " id="XMLID_467_">
     <tspan id="svg_11" class="st8 st9 st10" y="0" x="0">KEY</tspan>
     <tspan id="svg_12" class="st8 st9 st10" y="7" x="-10.9">SOLUTION</tspan>
    </text>
   </g>
   <g class="st3" id="XMLID_291_">
    <text class="st8 st9 st10" transform="matrix(1,0,0,1,-69.1653,211.167) " id="XMLID_468_">BANK</text>
   </g>
   <g class="st3" id="XMLID_295_">
    <text class="st8 st9 st10" transform="matrix(1,0,0,1,22.0008,211.167) " id="XMLID_469_">LOAN</text>
   </g>
   <g class="st3" id="XMLID_344_">
    <text class="st8 st9 st10" transform="matrix(1,0,0,1,101.2337,211.1671) " id="XMLID_470_">ACCOUTING</text>
   </g>
   <g class="st3" id="XMLID_348_">
    <text transform="matrix(1,0,0,1,194.6282,211.1666) " id="XMLID_471_">
     <tspan id="svg_13" class="st8 st9 st10" y="0" x="0">EMPLOYEE</tspan>
     <tspan id="svg_14" class="st8 st9 st10" y="7" x="-8.2">OF THE MONTH</tspan>
    </text>
   </g>
   <g class="st3" id="XMLID_351_">
    <text class="st8 st9 st10" transform="matrix(1,0,0,1,-161.4352,307.1667) " id="XMLID_472_">SCALE</text>
   </g>
   <g class="st3" id="XMLID_395_">
    <text class="st8 st9 st10" transform="matrix(1,0,0,1,-80.9337,307.1663) " id="XMLID_473_">TEAMWORK</text>
   </g>
   <g class="st3" id="XMLID_403_">
    <text class="st8 st9 st10" transform="matrix(1,0,0,1,11.0073,307.1667) " id="XMLID_474_">PORTFOLIO</text>
   </g>
   <g class="st3" id="XMLID_418_">
    <text transform="matrix(1,0,0,1,112.2521,307.1667) " id="XMLID_475_">
     <tspan id="svg_15" class="st8 st9 st10" y="0" x="0">PIGGY</tspan>
     <tspan id="svg_16" class="st8 st9 st10" y="7" x="0.6">BANK</tspan>
    </text>
   </g>
   <g class="st3" id="XMLID_446_">
    <text transform="matrix(1,0,0,1,187.8177,307.1667) " id="XMLID_476_">
     <tspan id="svg_17" class="st8 st9 st10" y="0" x="0">SOCIAL MEDIA</tspan>
     <tspan id="svg_18" class="st8 st9 st10" y="7" x="6.3">CAMPAIGN</tspan>
    </text>
   </g>
  </g>
  <g class="st0" id="headline">
   <circle r="18.3" cy="-208.4" cx="-133.5" class="st11" id="XMLID_61_"/>
   <circle r="18.3" cy="-208.4" cx="-110.1" class="st12" id="XMLID_60_"/>
   <circle r="18.3" cy="-190.1" cx="-122.7" class="st13" id="XMLID_63_"/>
   <g class="st3" id="XMLID_4_">
    <text transform="matrix(1,0,0,1,-183.7552,-194.0852) " id="XMLID_477_">
     <tspan id="svg_19" fill="#231F20" y="0" x="0">FLAT</tspan>
     <tspan id="svg_20" fill="#231F20" y="0" x="45.5">LINE</tspan>
     <tspan id="svg_21" fill="#231F20" y="0" x="83.9">ICONS</tspan>
    </text>
   </g>
   <g class="st3" id="XMLID_1_">
    <text fill="#231F20" transform="matrix(1,0,0,1,127.3388,-193.9056) " id="XMLID_478_">BUSINESS &amp; FINANCE</text>
   </g>
  </g>
 </g>
</svg>