<svg id="Capa_1" enable-background="new 0 0 511.912 511.912" height="512" viewBox="0 0 511.912 511.912" width="512" xmlns="http://www.w3.org/2000/svg"><g><path d="m489.006 91.286h-30.35c-4.143 0-7.5 3.358-7.5 7.5s3.357 7.5 7.5 7.5h30.35c4.136 0 7.5 3.364 7.5 7.5v220.103c0 5.79-4.71 10.5-10.5 10.5h-460.1c-5.79 0-10.5-4.71-10.5-10.5v-220.103c0-4.136 3.364-7.5 7.5-7.5h31.318v15.962c0 4.815 3.606 8.871 8.387 9.434l16.559 1.954c1.799 6.217 4.281 12.206 7.413 17.882l-10.328 13.09c-2.986 3.78-2.67 9.199.736 12.606l18.44 18.44c3.406 3.403 8.824 3.72 12.601.739l13.095-10.332c5.675 3.131 11.664 5.613 17.882 7.412l1.952 16.554c.562 4.784 4.618 8.392 9.436 8.392h26.076c4.813 0 8.869-3.605 9.435-8.388l1.953-16.559c6.217-1.798 12.206-4.281 17.882-7.412l13.094 10.332c3.782 2.984 9.199 2.664 12.603-.741l18.438-18.438c3.404-3.404 3.723-8.822.74-12.602l-10.331-13.095c3.131-5.675 5.613-11.664 7.412-17.881l16.559-1.954c4.781-.563 8.388-4.619 8.388-9.434v-15.962h151.012c4.143 0 7.5-3.358 7.5-7.5s-3.357-7.5-7.5-7.5h-152.37c-1.471-2.447-4.016-4.193-7.03-4.548l-16.56-1.954c-1.798-6.217-4.28-12.206-7.412-17.882l10.331-13.094c2.982-3.78 2.664-9.197-.74-12.602l-18.438-18.439c-3.405-3.405-8.822-3.723-12.603-.74l-13.094 10.331c-5.676-3.131-11.665-5.614-17.882-7.412l-1.953-16.561c-.565-4.779-4.621-8.384-9.434-8.384h-26.076c-4.817 0-8.874 3.608-9.435 8.388l-1.953 16.559c-6.218 1.799-12.208 4.281-17.882 7.412l-13.095-10.332c-3.776-2.979-9.192-2.663-12.603.741l-18.438 18.439c-3.406 3.407-3.723 8.826-.739 12.602l10.331 13.094c-3.131 5.675-5.613 11.664-7.412 17.882l-16.559 1.954c-3.015.355-5.56 2.101-7.031 4.548h-32.675c-12.406 0-22.5 10.093-22.5 22.5v275.71c0 12.407 10.094 22.5 22.5 22.5h38.55c4.143 0 7.5-3.358 7.5-7.5s-3.357-7.5-7.5-7.5h-38.55c-4.136 0-7.5-3.364-7.5-7.5v-32.379c3.205 1.454 6.758 2.271 10.5 2.271h460.1c3.742 0 7.295-.817 10.5-2.271v32.379c0 4.136-3.364 7.5-7.5 7.5h-392.55c-4.143 0-7.5 3.358-7.5 7.5s3.357 7.5 7.5 7.5h106.87v40.568h-36.152c-8.547 0-15.5 6.953-15.5 15.5v28.348c0 8.547 6.953 15.5 15.5 15.5h177.564c8.547 0 15.5-6.953 15.5-15.5v-28.348c0-8.547-6.953-15.5-15.5-15.5h-36.152v-40.568h180.42c12.406 0 22.5-10.093 22.5-22.5v-275.71c0-12.408-10.094-22.501-22.5-22.501zm-419.781 9.776 15.422-1.819c3.922-.462 7.184-3.359 8.114-7.208 1.765-7.287 4.645-14.234 8.557-20.644 2.065-3.38 1.81-7.735-.639-10.838l-9.623-12.197 11.523-11.524 12.196 9.622c3.1 2.447 7.454 2.704 10.836.642 6.415-3.916 13.361-6.795 20.648-8.559 3.846-.932 6.742-4.19 7.207-8.114l1.82-15.423h16.297l1.818 15.418c.461 3.925 3.358 7.188 7.209 8.119 7.284 1.763 14.231 4.643 20.646 8.558 3.378 2.062 7.731 1.806 10.836-.641l12.196-9.623 11.523 11.524-9.623 12.197c-2.446 3.102-2.703 7.456-.64 10.834 3.914 6.415 6.794 13.361 8.557 20.646.932 3.85 4.193 6.747 8.114 7.209l15.424 1.819v16.297l-15.423 1.819c-3.922.462-7.184 3.359-8.114 7.208-1.764 7.287-4.644 14.233-8.561 20.649-2.061 3.379-1.803 7.731.644 10.832l9.622 12.196-11.523 11.524-12.196-9.623c-3.103-2.447-7.456-2.703-10.835-.641-6.415 3.915-13.362 6.794-20.646 8.558-3.853.932-6.75 4.195-7.209 8.114l-1.819 15.423h-16.297l-1.819-15.427c-.465-3.919-3.36-7.179-7.208-8.111-7.287-1.764-14.234-4.644-20.65-8.56-3.383-2.062-7.737-1.801-10.832.643l-12.196 9.623-11.524-11.524 9.624-12.198c2.447-3.103 2.703-7.458.64-10.833-3.914-6.414-6.794-13.361-8.558-20.646-.932-3.85-4.193-6.747-8.114-7.209l-15.423-1.819v-16.293zm276.013 367.002v28.348c0 .276-.225.5-.5.5h-177.564c-.275 0-.5-.224-.5-.5v-28.348c0-.276.225-.5.5-.5h177.564c.276 0 .5.224.5.5zm-51.652-15.5h-75.26v-40.568h75.26z"/><path d="m407.548 142.622-11.42 9.01c-4.95-2.694-10.159-4.854-15.56-6.45l-1.703-14.443c-.565-4.78-4.621-8.385-9.435-8.385h-23.377c-4.817 0-8.874 3.608-9.435 8.387l-1.704 14.441c-5.398 1.595-10.607 3.754-15.559 6.449l-11.42-9.01c-3.779-2.98-9.194-2.664-12.603.741l-16.531 16.532c-3.402 3.404-3.72 8.821-.738 12.6l9.01 11.42c-2.696 4.952-4.855 10.161-6.449 15.559l-14.445 1.704c-4.779.566-8.384 4.622-8.384 9.435v23.377c0 4.815 3.606 8.871 8.387 9.434l14.442 1.704c1.595 5.398 3.754 10.608 6.449 15.559l-9.01 11.42c-2.982 3.78-2.664 9.197.739 12.602l16.534 16.534c3.407 3.401 8.822 3.718 12.599.737l11.42-9.01c4.951 2.695 10.16 4.854 15.559 6.449l1.703 14.437c.562 4.784 4.618 8.392 9.436 8.392h23.377c4.812 0 8.869-3.604 9.435-8.387l1.703-14.441c5.4-1.595 10.61-3.755 15.56-6.449l11.418 9.008c3.78 2.985 9.197 2.666 12.604-.739l16.53-16.53c3.404-3.404 3.723-8.822.74-12.602l-9.01-11.419c2.695-4.951 4.854-10.16 6.449-15.56l14.44-1.704c4.781-.563 8.388-4.619 8.388-9.434v-23.377c0-4.813-3.604-8.869-8.387-9.435l-14.441-1.704c-1.595-5.397-3.753-10.606-6.449-15.559l9.01-11.419c2.981-3.778 2.664-9.195-.74-12.602l-16.529-16.528c-3.403-3.407-8.821-3.728-12.603-.744zm6.128 45.753c3.471 5.71 6.032 11.888 7.61 18.36.936 3.844 4.196 6.736 8.112 7.198l13.289 1.567v13.6l-13.288 1.567c-3.918.461-7.179 3.354-8.112 7.195-1.579 6.476-4.141 12.654-7.608 18.359-2.058 3.379-1.799 7.73.646 10.829l8.291 10.508-9.616 9.616-10.508-8.291c-3.093-2.441-7.44-2.704-10.826-.649-5.709 3.471-11.887 6.032-18.361 7.611-3.841.936-6.732 4.195-7.196 8.113l-1.567 13.289h-13.599l-1.566-13.283c-.46-3.917-3.351-7.18-7.195-8.118-6.476-1.579-12.653-4.14-18.365-7.612-3.38-2.054-7.729-1.791-10.822.65l-10.51 8.292-9.615-9.615 8.288-10.504c2.445-3.095 2.708-7.446.652-10.829-3.471-5.71-6.032-11.888-7.612-18.367-.938-3.84-4.198-6.73-8.11-7.191l-13.29-1.567v-13.599l13.29-1.567c3.912-.461 7.172-3.351 8.111-7.194 1.579-6.476 4.141-12.654 7.612-18.365 2.055-3.381 1.792-7.732-.65-10.823l-8.291-10.509 9.616-9.615 10.508 8.291c3.096 2.443 7.446 2.703 10.825.649 5.708-3.471 11.887-6.032 18.364-7.612 3.844-.938 6.734-4.2 7.193-8.111l1.568-13.29h13.598l1.567 13.293c.464 3.914 3.356 7.172 7.195 8.108 6.477 1.581 12.655 4.141 18.365 7.613 3.38 2.053 7.729 1.791 10.822-.65l10.509-8.295 9.615 9.615-8.292 10.51c-2.443 3.098-2.702 7.449-.647 10.823z"/><path d="m163.435 158.216c27.021 0 49.006-21.984 49.006-49.006s-21.984-49.006-49.006-49.006-49.006 21.984-49.006 49.006 21.984 49.006 49.006 49.006zm0-15c-18.751 0-34.006-15.255-34.006-34.006 0-.986.052-1.959.134-2.924h67.744c.083.965.134 1.938.134 2.924-.001 18.751-15.255 34.006-34.006 34.006zm0-68.012c12.176 0 22.873 6.437 28.881 16.082h-57.762c6.008-9.645 16.704-16.082 28.881-16.082z"/><path d="m357.742 178.185c-24.325 0-44.115 19.79-44.115 44.115 0 24.326 19.79 44.116 44.115 44.116s44.115-19.79 44.115-44.116c0-24.325-19.79-44.115-44.115-44.115zm0 73.231c-16.054 0-29.115-13.061-29.115-29.116 0-16.054 13.062-29.115 29.115-29.115s29.115 13.061 29.115 29.115c0 16.055-13.061 29.116-29.115 29.116z"/></g></svg>