<svg width="500" height="500" viewBox="0 0 500 500" fill="none" xmlns="http://www.w3.org/2000/svg">
<path d="M250.1 0.800051C388.5 0.100051 502.4 115.2 499.1 255.9C496.1 390 385 501 246.6 499.3C110 497.6 -2.69967 383.8 0.900329 243.3C4.30033 109.8 114.4 0.200051 250.1 0.800051ZM31.2003 250.4C32.4003 375.7 134 472.2 254 470C370.3 467.9 468.7 373 468.6 249.9C468.6 124.5 366.1 27.7001 245.8 30.0001C129.4 32.3001 31.9003 127.3 31.2003 250.4Z" fill="white"/>
<path d="M393 142.6C393 213.7 393 284.5 393 355.6C297.9 355.6 202.8 355.6 107.4 355.6C107.4 284.8 107.4 213.9 107.4 142.6C202.3 142.6 297.4 142.6 393 142.6ZM250.8 272.7C244.1 267.1 237.7 262 231.7 256.5C228.9 253.9 227.1 254.1 224.2 256.4C200.7 275.5 177 294.4 153.5 313.5C152.2 314.5 151.4 316.8 151.3 318.5C151.1 328.3 151.4 338.2 151.1 348C150.9 352.6 152.3 353.9 156.9 353.8C220.1 353.6 283.2 353.7 346.4 353.7C348.1 353.7 349.9 353.7 351.9 353.7C351.9 340.1 352 327.2 351.8 314.4C351.8 313.2 350.9 311.5 349.8 310.8C323.7 292.2 297.4 273.6 271.1 255C264.4 260.9 257.8 266.6 250.8 272.7ZM250.3 230.9C279.9 202.2 309 173.9 339.1 144.7C279.9 144.7 222.5 144.7 165.1 144.7C193.3 173.2 221.2 201.5 250.3 230.9ZM351.6 304.3C351.6 264.3 351.6 225.1 351.6 185.2C326 207.4 300.9 229.1 275.6 251.1C301.3 269.1 326.2 286.5 351.6 304.3ZM223.5 249.5C199.6 229.2 176.1 209.2 151.8 188.5C151.8 228.4 151.8 267.1 151.8 306.8C176 287.5 199.6 268.6 223.5 249.5Z" fill="white"/>
</svg>
