<svg width="500" height="500" viewBox="0 0 500 500" fill="none" xmlns="http://www.w3.org/2000/svg">
<path d="M249.9 499.2C111.4 499.9 -2.39991 384.6 0.900087 244C3.90009 110 115 -1.00006 253.3 0.699935C389.9 2.39994 502.7 116.1 499.1 256.7C495.7 390.2 385.7 499.8 249.9 499.2ZM31.2001 249.9C32.1001 372.5 129.1 468.1 245.6 469.8C369.2 471.6 468.4 374.1 468.7 250.3C468.8 127.6 370.9 32.2999 254.2 29.9999C134.1 27.6999 32.2001 124.3 31.2001 249.9Z" fill="white"/>
<path d="M404.2 253.3C404.2 275.1 403.6 297 404.3 318.8C405.8 360.7 375.6 395.7 335.7 405.7C327.9 407.7 319.6 408.9 311.6 409C269.3 409.3 227 409.7 184.7 409C149.4 408.4 121.6 393.4 102.8 362.9C95.6002 351.2 92.0002 338.2 92.0002 324.4C91.9002 276.9 91.5002 229.4 92.1002 182C92.5002 151 108 128.1 133.7 111.7C149.7 101.5 167.4 96.9001 186.3 96.9001C227.6 96.8001 268.9 96.4001 310.2 97.0001C346.6 97.5001 375.4 112.7 394.1 144.7C400.8 156.2 404.2 168.9 404.2 182.4C404.1 206 404.2 229.7 404.2 253.3ZM115 253.1C115 275.9 115 298.8 115 321.6C115 330.7 116.7 339.5 121 347.6C134.8 373.6 157.4 385.4 185.9 385.8C227.2 386.4 268.6 386.1 309.9 385.8C317 385.8 324.2 384.6 331.1 382.8C358.6 375.4 382 351.6 381.2 316.7C380.2 272.7 381 228.7 381 184.7C381 175 379.2 165.8 374.5 157.3C360.4 132 337.9 120.5 309.9 120.1C268.7 119.5 227.6 119.7 186.4 120.1C178.2 120.2 169.8 121.7 161.9 124.1C135 132.4 113.8 156.3 114.9 188.5C115.6 210.1 115 231.6 115 253.1Z" fill="white"/>
<path d="M248.1 175C288.8 174.9 321.8 207.4 321.8 247.4C321.7 287.2 288.8 319.7 248.5 319.8C207.9 319.9 175 287.5 175 247.3C175 207.4 207.6 175.1 248.1 175ZM248.1 198.2C220.7 198.3 198.1 220.6 198.2 247.5C198.3 274.4 220.8 296.5 248.4 296.6C275.9 296.6 298.5 274.5 298.6 247.6C298.5 220.3 275.8 198.1 248.1 198.2Z" fill="white"/>
<path d="M345.8 168.7C346 177.2 339 184.7 330.7 185C322.2 185.3 314.9 178.1 314.8 169.2C314.7 160.5 321.4 153.2 329.7 152.9C338.2 152.6 345.6 159.9 345.8 168.7Z" fill="white"/>
</svg>
