<svg width="500" height="500" viewBox="0 0 500 500" fill="none" xmlns="http://www.w3.org/2000/svg">
<path d="M249.8 499.2C111.4 499.8 -2.39991 384.6 0.900087 243.9C4.00009 110 115 -0.799888 253 0.700112C389.7 2.20011 502.8 116 499.1 256.9C495.6 390.3 385.6 499.9 249.8 499.2ZM468.8 249.9C467.8 124.6 366.4 28.2001 246.8 30.0001C130.3 31.7001 31.2001 126.7 31.4001 250.3C31.6001 375.6 133.8 471.9 253.4 470C369.8 468.2 467.9 373.4 468.8 249.9Z" fill="white"/>
<path d="M101.5 395.3C105 384.7 108.3 374.9 111.5 365.2C116 351.8 120.4 338.4 125.1 325C126.3 321.6 126.2 318.9 124.4 315.7C78.4 233.1 125.5 129.2 217.8 109.3C295.3 92.6001 371.7 143.7 386 221.8C399.5 296 352.4 367.8 278.9 384.6C246.5 392 215 388.3 185.1 373.4C181.1 371.4 177.8 370.9 173.4 372.4C150.5 380 127.5 387.2 104.5 394.5C103.8 394.7 103.2 394.8 101.5 395.3ZM137.9 359.5C152.2 354.9 165.3 350.8 178.4 346.4C181.4 345.4 183.8 345.6 186.7 347.3C215.1 364.4 245.6 368.7 277.5 360.5C336.6 345.2 373.7 286 362.8 225.8C351.8 165 294.1 123 232.5 130.9C146.8 141.9 102 239 149.4 311.2C151.8 314.9 152 317.8 150.6 321.7C146.3 333.9 142.3 346.2 137.9 359.5Z" fill="white"/>
<path d="M177 214.2C177.2 200.4 182.1 190.1 191.4 181.8C195.7 178 206.4 176.6 211.2 179.5C212.9 180.5 214.2 182.7 214.9 184.6C218.5 193.9 222.1 203.2 225.2 212.7C225.9 215 225.3 218.4 224.1 220.5C221.8 224.3 218.6 227.6 215.5 230.8C213.2 233.2 212.7 235.4 214.3 238.4C225.2 258.6 241 273.4 262 282.8C265.1 284.2 267.7 283.6 270 280.9C273.5 276.7 277.3 272.7 280.8 268.4C283 265.6 285.6 264.8 288.7 266.4C298.4 271.4 308.3 276.3 317.7 281.9C319.4 282.9 320.5 286.7 320.3 289.1C319 306.3 307.3 313.6 292.4 317C285.5 318.6 279 317.2 272.3 315.2C230.8 303.3 203.4 275.2 183.7 238.3C179.5 230.4 177.1 222 177 214.2Z" fill="white"/>
</svg>
